<?xml version="1.0" standalone="no"?>
<!DOCTYPE svg PUBLIC "-//W3C//DTD SVG 20010904//EN"
 "http://www.w3.org/TR/2001/REC-SVG-20010904/DTD/svg10.dtd">
<svg version="1.0" xmlns="http://www.w3.org/2000/svg"
 width="242.000000pt" height="347.000000pt" viewBox="0 0 242.000000 347.000000"
 preserveAspectRatio="xMidYMid meet">

<g transform="translate(0.000000,347.000000) scale(0.100000,-0.100000)"
fill="#000000" stroke="none">
<path d="M0 3345 c0 -117 1 -125 19 -125 11 0 26 6 33 13 17 15 78 37 106 37
12 0 22 5 22 10 0 6 9 10 20 10 16 0 20 7 20 30 0 23 4 30 20 30 11 0 20 5 20
10 0 6 -9 10 -20 10 -13 0 -20 7 -20 20 0 16 7 20 30 20 27 0 30 3 30 30 l0
30 -140 0 -140 0 0 -125z"/>
<path d="M540 3450 c0 -13 7 -20 20 -20 13 0 20 7 20 20 0 13 -7 20 -20 20
-13 0 -20 -7 -20 -20z"/>
<path d="M590 3458 c0 -7 5 -31 11 -52 8 -29 13 -36 20 -25 7 10 11 11 17 2
11 -17 210 -12 221 6 5 7 33 19 62 25 43 10 55 17 57 34 3 22 3 22 -192 22
-150 0 -196 -3 -196 -12z"/>
<path d="M1710 3464 c0 -18 24 -44 41 -44 33 0 62 -19 50 -34 -15 -18 15 -56
44 -56 13 0 31 -7 39 -16 9 -8 22 -12 28 -8 7 4 10 4 6 0 -3 -4 0 -23 8 -41
11 -26 14 -87 14 -252 0 -120 -4 -223 -8 -229 -4 -6 -16 -16 -27 -22 -20 -11
-20 -11 1 -12 11 0 34 16 51 35 23 25 40 35 62 35 51 0 61 27 61 165 0 81 -4
125 -12 133 -16 16 -61 15 -76 0 -10 -10 -13 6 -11 79 1 51 5 90 10 87 5 -3 9
-1 9 4 0 5 11 7 24 5 13 -3 33 0 44 6 16 8 21 7 26 -5 3 -9 6 -110 6 -226 0
-196 1 -213 21 -244 14 -24 28 -34 45 -34 13 0 24 5 24 10 0 6 -6 10 -14 10
-30 0 -38 66 -35 268 2 108 0 203 -5 211 -6 10 -5 12 2 7 7 -4 12 -2 12 4 0 6
5 8 10 5 6 -3 17 1 26 9 16 17 54 22 54 8 0 -12 67 -31 89 -25 12 3 26 -5 41
-24 12 -15 24 -26 27 -25 3 2 10 -2 14 -10 5 -7 9 39 9 110 l0 122 -355 0
c-195 0 -355 -3 -355 -6z m250 -168 c0 -2 -7 -9 -15 -16 -12 -10 -15 -10 -15
4 0 9 7 16 15 16 8 0 15 -2 15 -4z m72 -198 c2 -7 5 -62 7 -123 1 -83 -1 -115
-12 -130 -13 -16 -17 -17 -31 -6 -13 11 -16 35 -16 130 0 115 7 141 36 141 6
0 14 -6 16 -12z m95 -30 c-3 -7 -5 -2 -5 12 0 14 2 19 5 13 2 -7 2 -19 0 -25z
m-70 -110 c-2 -13 -4 -5 -4 17 -1 22 1 32 4 23 2 -10 2 -28 0 -40z"/>
<path d="M1735 3310 c3 -5 10 -10 16 -10 5 0 9 5 9 10 0 6 -7 10 -16 10 -8 0
-12 -4 -9 -10z"/>
<path d="M1769 3298 c-5 -60 -3 -88 9 -88 8 0 12 17 12 50 0 28 -4 50 -10 50
-5 0 -11 -6 -11 -12z"/>
<path d="M1710 3255 c0 -51 4 -54 31 -22 22 27 25 44 4 27 -13 -11 -15 -8 -15
14 0 14 -4 26 -10 26 -5 0 -10 -20 -10 -45z"/>
<path d="M1631 3258 c-21 -56 -22 -73 -2 -38 l19 35 7 -27 c4 -16 11 -28 16
-28 12 0 12 1 -6 44 -18 42 -23 44 -34 14z"/>
<path d="M1544 3225 c1 -56 16 -60 16 -5 0 22 5 40 10 40 6 0 10 -8 10 -17 0
-15 2 -16 9 -3 13 19 4 30 -23 30 -21 0 -23 -4 -22 -45z"/>
<path d="M1490 3248 c0 -6 -8 -21 -17 -32 -10 -12 -11 -15 -3 -8 22 19 33 14
28 -13 -3 -14 -1 -25 3 -25 5 0 9 20 9 45 0 25 -4 45 -10 45 -5 0 -10 -5 -10
-12z"/>
<path d="M1435 3205 c0 -42 9 -59 17 -34 5 16 -3 79 -11 79 -3 0 -6 -20 -6
-45z"/>
<path d="M1376 3223 c-4 -9 -2 -20 5 -23 6 -5 8 -17 4 -29 -4 -13 -2 -21 5
-21 7 0 10 17 8 45 -3 47 -11 57 -22 28z"/>
<path d="M1317 3213 c4 -10 13 -28 21 -41 12 -18 17 -20 23 -10 5 7 9 18 9 23
0 6 -4 4 -9 -3 -6 -10 -11 -5 -21 17 -13 32 -34 44 -23 14z"/>
<path d="M1128 3178 c-2 -13 -1 -34 3 -48 5 -19 7 -14 8 23 1 50 -4 62 -11 25z"/>
<path d="M1200 3195 c0 -2 9 -19 20 -37 23 -37 25 -35 9 11 -6 17 -15 31 -20
31 -5 0 -9 -2 -9 -5z"/>
<path d="M1070 3145 c0 -25 4 -45 8 -45 4 0 8 20 8 45 1 25 -3 45 -8 45 -4 0
-8 -20 -8 -45z"/>
<path d="M1012 3159 c-8 -12 -9 -18 -3 -14 7 4 11 -5 11 -24 0 -17 3 -31 8
-31 4 0 7 20 7 45 0 50 -4 55 -23 24z"/>
<path d="M1312 3160 c0 -14 2 -19 5 -12 2 6 2 18 0 25 -3 6 -5 1 -5 -13z"/>
<path d="M960 3141 c0 -36 13 -46 31 -25 10 12 10 15 -2 12 -9 -2 -13 5 -12
20 2 12 -2 22 -7 22 -6 0 -10 -13 -10 -29z"/>
<path d="M1186 3155 c-3 -9 -6 -22 -5 -28 0 -7 5 -1 10 12 5 13 8 26 5 28 -2
2 -6 -3 -10 -12z"/>
<path d="M881 3143 c0 -11 3 -13 6 -5 11 28 25 10 21 -28 -2 -23 1 -40 7 -40
6 0 9 18 7 45 -3 36 -8 45 -23 45 -12 0 -19 -7 -18 -17z"/>
<path d="M1856 3139 c-16 -13 -26 -30 -26 -47 0 -15 -4 -33 -9 -41 -7 -11 -11
-5 -17 24 -6 33 -4 40 17 56 23 18 23 19 3 19 -43 0 -64 -41 -93 -179 -16 -72
-25 -131 -21 -131 18 0 39 41 50 102 7 37 16 66 20 63 14 -9 20 -69 10 -110
-10 -46 -9 -49 14 -32 10 8 23 38 30 73 l12 59 18 -55 c19 -57 41 -89 52 -77
4 4 -5 54 -19 112 -15 58 -27 113 -27 123 0 21 33 56 43 45 4 -3 7 -1 7 5 0
19 -35 14 -64 -9z m-19 -131 c-3 -8 -6 -5 -6 6 -1 11 2 17 5 13 3 -3 4 -12 1
-19z m-80 -20 c-3 -8 -6 -5 -6 6 -1 11 2 17 5 13 3 -3 4 -12 1 -19z m-10 -40
c-3 -8 -6 -5 -6 6 -1 11 2 17 5 13 3 -3 4 -12 1 -19z"/>
<path d="M788 3094 c5 -54 9 -53 15 4 2 26 0 42 -7 42 -7 0 -10 -17 -8 -46z"/>
<path d="M726 3113 c-4 -9 -1 -20 5 -24 7 -4 9 -16 6 -28 -3 -12 -1 -21 4 -21
6 0 9 20 8 45 -3 46 -12 58 -23 28z"/>
<path d="M1502 3118 c-7 -7 -12 -38 -12 -70 l0 -58 -31 0 -31 0 4 65 c2 36 3
65 2 65 -2 0 -10 -7 -18 -16 -10 -10 -16 -33 -16 -64 0 -42 -3 -49 -24 -54
-14 -3 -30 -20 -41 -43 -16 -32 -16 -40 -4 -62 8 -13 21 -26 29 -29 10 -3 8 1
-4 10 -34 27 -11 108 31 108 18 0 19 -116 1 -123 -10 -4 -10 -6 0 -6 21 -2 15
-78 -8 -101 -19 -19 -16 -27 5 -12 38 27 71 140 38 127 -10 -3 -13 14 -11 68
1 70 1 71 8 22 l7 -50 1 41 c2 39 3 40 33 36 l31 -5 -4 -104 c-2 -79 -7 -106
-18 -113 -8 -5 -10 -10 -3 -10 13 0 58 70 54 85 -3 10 -2 66 2 228 2 79 0 86
-21 65z m5 -190 c-2 -13 -4 -3 -4 22 0 25 2 35 4 23 2 -13 2 -33 0 -45z"/>
<path d="M668 3095 c2 -14 8 -23 12 -20 5 3 12 -4 15 -16 6 -17 9 -19 16 -8
11 18 11 32 0 25 -4 -3 -13 6 -19 19 -15 32 -31 32 -24 0z"/>
<path d="M1635 2988 c0 -126 -1 -133 -20 -133 -19 0 -20 8 -25 129 -5 125 -5
128 -23 108 -16 -18 -18 -35 -15 -137 3 -126 10 -141 57 -124 19 8 31 6 52
-11 36 -26 72 -29 40 -2 -19 16 -21 29 -23 157 -3 131 -4 140 -23 143 -19 3
-20 -3 -20 -130z m-58 -25 c-3 -10 -5 -4 -5 12 0 17 2 24 5 18 2 -7 2 -21 0
-30z"/>
<path d="M353 3080 c-18 -11 -35 -30 -38 -43 -3 -12 -5 -125 -3 -251 3 -212 4
-229 22 -242 27 -20 75 -17 112 5 30 18 31 22 39 112 7 100 17 129 40 129 11
0 15 -13 15 -49 0 -61 18 -80 60 -64 23 9 32 8 41 -4 21 -25 50 -36 62 -24 8
8 5 11 -11 11 -22 0 -22 2 -22 139 0 114 -3 143 -16 155 -8 9 -18 16 -22 16
-4 0 -6 -58 -4 -128 3 -99 0 -131 -10 -140 -8 -6 -19 -7 -28 -2 -11 7 -13 34
-12 129 2 67 -1 121 -6 121 -21 0 -32 -29 -32 -81 0 -52 -2 -58 -22 -61 -16
-2 -32 -19 -49 -52 -15 -27 -34 -53 -43 -58 -15 -8 -15 -11 -1 -24 18 -19 20
-105 3 -122 -18 -18 -46 -14 -58 7 -6 12 -10 105 -10 233 0 183 3 218 18 248
21 42 57 52 67 19 4 -12 4 -60 0 -106 -5 -64 -12 -90 -26 -104 -11 -11 -25
-17 -31 -13 -6 4 -9 1 -6 -7 3 -8 16 -14 29 -14 19 0 29 11 50 53 14 28 34 59
45 68 13 11 15 17 7 20 -8 3 -13 23 -13 45 0 41 -14 78 -34 91 -21 14 -81 8
-113 -12z m-16 -352 c-2 -35 -3 -9 -3 57 0 66 1 94 3 63 2 -32 2 -86 0 -120z
m220 55 c-3 -10 -5 -2 -5 17 0 19 2 27 5 18 2 -10 2 -26 0 -35z"/>
<path d="M855 3070 c-3 -5 -1 -10 4 -10 6 0 11 5 11 10 0 6 -2 10 -4 10 -3 0
-8 -4 -11 -10z"/>
<path d="M661 3044 c0 -11 3 -14 6 -6 3 7 2 16 -1 19 -3 4 -6 -2 -5 -13z"/>
<path d="M1202 3044 c-21 -14 -22 -23 -22 -129 0 -62 3 -120 6 -129 8 -20 73
-22 99 -2 15 11 19 31 23 123 5 129 -3 153 -51 153 -18 0 -43 -7 -55 -16z m68
-129 c0 -125 -7 -149 -35 -125 -22 19 -21 222 1 244 8 9 20 14 25 11 5 -4 9
-62 9 -130z m17 -32 c-3 -10 -5 -4 -5 12 0 17 2 24 5 18 2 -7 2 -21 0 -30z
m-80 5 c-3 -8 -6 -5 -6 6 -1 11 2 17 5 13 3 -3 4 -12 1 -19z"/>
<path d="M862 3018 c-7 -7 -12 -38 -12 -70 0 -49 -3 -58 -17 -58 -38 0 -46 15
-41 74 3 31 3 56 2 56 -16 0 -34 -39 -34 -73 0 -36 -5 -46 -35 -70 -27 -22
-35 -35 -35 -61 0 -31 24 -66 46 -66 4 0 -2 7 -14 16 -27 19 -29 64 -4 87 37
33 42 22 42 -90 0 -70 -4 -112 -12 -123 -7 -9 1 -1 17 17 30 33 31 35 27 129
l-4 96 29 -4 28 -3 3 -90 c3 -105 -2 -132 -26 -138 -16 -4 -16 -5 1 -6 10 -1
26 13 38 34 19 31 21 53 22 195 1 88 0 160 -3 160 -4 0 -11 -5 -18 -12z m5
-210 c-2 -24 -4 -7 -4 37 0 44 2 63 4 43 2 -21 2 -57 0 -80z m-90 -31 c-2 -23
-3 -1 -3 48 0 50 1 68 3 42 2 -26 2 -67 0 -90z"/>
<path d="M940 2871 c0 -144 -1 -151 -22 -165 -12 -9 -17 -16 -11 -16 6 0 25
12 42 26 l31 26 0 123 c0 131 -4 155 -26 155 -11 0 -14 -28 -14 -149z"/>
<path d="M1104 3004 c15 -15 17 -33 14 -131 -2 -62 0 -113 4 -113 20 0 28 49
26 147 l-3 108 -29 3 c-28 3 -28 3 -12 -14z m33 -126 c-3 -7 -5 -2 -5 12 0 14
2 19 5 13 2 -7 2 -19 0 -25z"/>
<path d="M1013 3004 c15 -5 17 -20 17 -130 0 -73 4 -124 10 -124 22 0 31 45
28 147 l-3 108 -35 2 c-19 1 -27 -1 -17 -3z m44 -156 c-2 -13 -4 -3 -4 22 0
25 2 35 4 23 2 -13 2 -33 0 -45z"/>
<path d="M1330 2306 c0 -2 9 -6 20 -9 11 -3 20 -1 20 4 0 5 -9 9 -20 9 -11 0
-20 -2 -20 -4z"/>
<path d="M1560 2290 c0 -14 7 -20 21 -20 11 0 29 -5 40 -10 13 -7 19 -7 19 -1
0 6 -18 20 -40 31 l-40 20 0 -20z"/>
<path d="M1223 2288 c-29 -14 -29 -25 -2 -33 22 -7 39 7 39 33 0 14 -7 14 -37
0z"/>
<path d="M1031 2251 c-31 -23 -48 -42 -41 -46 6 -4 22 4 34 17 13 12 34 30 47
39 13 10 21 20 18 23 -3 3 -29 -12 -58 -33z"/>
<path d="M1285 2280 c-3 -5 -1 -10 4 -10 6 0 11 5 11 10 0 6 -2 10 -4 10 -3 0
-8 -4 -11 -10z"/>
<path d="M1123 2255 c-28 -20 -30 -39 -3 -32 16 4 20 0 20 -19 0 -35 36 -123
58 -142 24 -22 38 -97 17 -88 -18 7 -19 -6 -3 -22 9 -9 9 -12 0 -12 -7 0 -12
-4 -12 -10 0 -5 6 -7 14 -4 11 4 13 0 9 -16 -3 -12 -12 -24 -19 -27 -8 -3 -14
-12 -14 -20 0 -13 2 -13 17 -2 15 13 15 12 2 -8 -9 -15 -16 -18 -21 -10 -7 12
-28 -31 -28 -60 0 -17 58 57 62 79 2 7 11 19 21 27 13 9 17 21 13 37 -4 14 -2
24 4 24 30 0 -1 85 -60 164 -32 42 -44 68 -49 106 -6 50 -6 50 -28 35z m122
-293 c-15 -16 -16 -15 -4 12 7 15 15 23 17 16 3 -7 -3 -19 -13 -28z"/>
<path d="M1760 2181 c0 -5 5 -13 10 -16 6 -3 10 -2 10 4 0 5 -4 13 -10 16 -5
3 -10 2 -10 -4z"/>
<path d="M1015 2168 c-11 -7 -29 -13 -40 -14 -11 -1 -19 -7 -17 -13 2 -9 -5
-10 -19 -6 -13 5 -19 3 -15 -3 3 -5 0 -10 -7 -9 -33 1 -47 -4 -47 -18 0 -11
-7 -14 -22 -10 -15 3 -32 -3 -47 -15 -31 -26 -22 -35 15 -16 15 9 37 13 49 10
12 -3 29 3 43 16 12 12 28 20 35 17 7 -2 -5 -14 -25 -27 -41 -24 -41 -24 -38
-87 1 -27 -3 -43 -10 -43 -6 0 -8 -5 -4 -11 12 -20 35 16 41 62 3 24 11 49 17
54 20 17 119 125 115 125 -2 0 -13 -6 -24 -12z"/>
<path d="M1736 2045 c-9 -25 -7 -73 3 -80 14 -8 33 32 29 62 -4 31 -23 41 -32
18z"/>
<path d="M1004 2035 c-8 -21 1 -29 19 -18 13 7 13 10 1 21 -12 11 -15 10 -20
-3z"/>
<path d="M1481 2014 c0 -11 3 -14 6 -6 3 7 2 16 -1 19 -3 4 -6 -2 -5 -13z"/>
<path d="M1013 1955 c-7 -7 -16 -33 -19 -56 l-7 -42 63 6 c35 4 74 7 86 7 36
0 30 32 -11 69 -39 34 -90 41 -112 16z m72 -41 c17 -13 18 -16 5 -24 -21 -13
-70 -12 -70 1 0 11 29 38 40 38 3 0 14 -6 25 -15z"/>
<path d="M1521 1917 c-9 -12 -7 -14 14 -14 14 0 24 4 22 10 -5 17 -23 19 -36
4z"/>
<path d="M1820 1890 c-12 -22 -7 -149 7 -185 11 -29 -14 -14 -29 18 l-16 32
-13 -29 c-12 -26 -11 -30 11 -48 28 -23 28 -43 -2 -101 -11 -22 -16 -42 -13
-45 11 -11 55 47 55 73 0 13 8 28 17 34 15 8 15 11 3 27 -9 11 -10 15 -2 10 9
-5 12 17 12 101 0 117 -9 152 -30 113z"/>
<path d="M1503 1851 c-15 -27 -17 -38 -8 -35 16 6 45 48 45 64 0 22 -17 8 -37
-29z"/>
<path d="M1397 1873 c-4 -3 -7 -16 -6 -27 0 -19 1 -19 10 3 10 24 8 36 -4 24z"/>
<path d="M1714 1817 c-16 -19 -38 -46 -47 -61 -15 -22 -25 -26 -62 -26 -24 0
-47 -4 -50 -10 -3 -5 -11 -10 -16 -10 -6 0 -3 7 6 16 26 27 8 29 -29 3 -33
-22 -40 -46 -9 -35 8 4 11 1 8 -5 -4 -6 -14 -8 -22 -5 -8 3 -26 -3 -40 -14
-20 -15 -41 -20 -89 -20 -36 0 -64 4 -64 10 0 6 11 10 24 10 38 0 88 26 125
64 51 53 29 66 -35 21 -27 -19 -79 -47 -116 -61 -37 -15 -77 -38 -90 -52 l-23
-25 27 17 c15 10 33 16 40 13 8 -2 0 -12 -19 -23 -17 -10 -39 -32 -48 -49 -15
-28 -15 -29 1 -7 19 26 36 28 67 8 12 -8 48 -17 80 -20 40 -3 63 -10 71 -22 7
-9 18 -14 25 -10 7 5 10 2 9 -6 -2 -8 6 -12 22 -11 22 2 23 1 7 -8 -9 -6 -26
-7 -36 -4 -13 4 -23 0 -29 -10 -6 -11 -19 -16 -38 -13 -16 2 -27 7 -24 11 6
10 -29 31 -37 23 -4 -3 -7 -14 -9 -24 -5 -40 -17 -62 -34 -62 -10 0 -20 -7
-24 -15 -3 -8 -12 -15 -21 -15 -8 0 -15 -4 -15 -10 0 -5 -6 -10 -14 -10 -7 0
-27 -7 -42 -15 -22 -11 -65 -15 -177 -15 l-148 0 36 -46 c19 -26 35 -50 35
-55 0 -12 33 -16 65 -7 17 5 61 15 98 23 59 13 71 13 88 1 15 -10 17 -15 7
-19 -11 -5 -11 -7 0 -15 11 -7 9 -15 -11 -36 -13 -14 -29 -26 -34 -26 -5 0
-15 -11 -21 -24 -6 -13 -20 -27 -31 -31 -12 -3 -21 -10 -21 -14 0 -13 -89 -44
-106 -37 -9 4 -14 13 -10 21 10 27 -24 29 -73 6 -72 -35 -208 -130 -242 -169
l-32 -36 6 -90 c4 -50 9 -105 13 -122 6 -29 2 -34 -41 -64 -55 -38 -53 -50 4
-20 l41 20 0 -62 c-1 -54 -6 -72 -36 -123 -20 -33 -56 -104 -82 -157 -28 -59
-54 -100 -65 -104 -10 -3 -23 -18 -29 -32 l-10 -27 -11 25 c-6 14 -14 27 -17
30 -3 3 -11 17 -17 33 -14 30 -28 35 -37 12 -5 -13 -10 -14 -27 -5 -12 7 -30
9 -41 7 -42 -11 -33 22 36 136 30 50 142 164 179 184 16 8 26 17 23 20 -12 13
-140 -94 -241 -201 -97 -105 -110 -115 -124 -102 -15 14 -18 13 -30 -6 -12
-19 -14 -20 -22 -5 -5 9 -16 14 -24 11 -12 -5 -15 -29 -15 -120 l0 -114 1210
0 1210 0 0 115 c0 128 7 120 -68 81 -27 -14 -39 -16 -64 -7 -17 6 -50 11 -72
11 -23 0 -58 8 -78 19 -27 13 -38 15 -42 6 -6 -16 -87 -29 -96 -15 -9 15 -70
1 -70 -16 0 -8 -8 -14 -17 -14 -10 0 -28 -3 -40 -6 -20 -5 -23 -2 -23 20 0 35
-18 33 -23 -1 -3 -22 -4 -20 -6 11 -1 29 2 37 13 33 12 -5 12 -2 0 21 -7 14
-21 59 -30 98 l-17 72 27 34 c34 42 169 238 202 293 28 49 30 92 8 185 -8 36
-19 107 -24 159 -13 132 -17 135 -157 132 -59 -1 -139 -6 -178 -11 -38 -5 -98
-10 -132 -10 -53 0 -61 2 -58 18 2 9 4 23 4 30 1 7 6 10 11 7 6 -4 10 -3 9 2
-1 4 -1 13 0 20 1 15 117 134 157 161 18 12 35 34 38 48 4 14 16 46 28 70 21
46 18 80 -6 71 -23 -9 -26 3 -11 40 8 20 15 42 15 50 0 7 10 27 21 42 17 23
19 35 12 56 l-8 26 -31 -34z m-313 -427 c27 0 49 -4 49 -10 0 -16 -82 -11
-110 6 -14 8 -17 13 -7 10 10 -3 41 -6 68 -6z m-118 -14 c6 -15 -1 -26 -15
-26 -4 0 -8 9 -8 20 0 23 15 27 23 6z m-33 -56 c0 -5 -7 -10 -16 -10 -8 0 -12
5 -9 10 3 6 10 10 16 10 5 0 9 -4 9 -10z m247 -1047 c-3 -10 -5 -2 -5 17 0 19
2 27 5 18 2 -10 2 -26 0 -35z m-741 17 c0 -12 -4 -16 -9 -11 -5 5 -6 14 -3 20
10 15 12 14 12 -9z m31 -12 c-3 -7 -5 -2 -5 12 0 14 2 19 5 13 2 -7 2 -19 0
-25z m150 0 c-3 -7 -5 -2 -5 12 0 14 2 19 5 13 2 -7 2 -19 0 -25z m50 -5 c-3
-10 -5 -4 -5 12 0 17 2 24 5 18 2 -7 2 -21 0 -30z m100 0 c-3 -10 -5 -4 -5 12
0 17 2 24 5 18 2 -7 2 -21 0 -30z m62 -8 c0 -5 -4 -3 -9 5 -5 8 -9 22 -9 30 0
16 17 -16 18 -35z m48 8 c-3 -10 -5 -4 -5 12 0 17 2 24 5 18 2 -7 2 -21 0 -30z
m40 0 c-3 -10 -5 -4 -5 12 0 17 2 24 5 18 2 -7 2 -21 0 -30z m40 5 c-3 -7 -5
-2 -5 12 0 14 2 19 5 13 2 -7 2 -19 0 -25z m150 -5 c-3 -10 -5 -4 -5 12 0 17
2 24 5 18 2 -7 2 -21 0 -30z m160 0 c-3 -10 -5 -4 -5 12 0 17 2 24 5 18 2 -7
2 -21 0 -30z m40 0 c-3 -10 -5 -4 -5 12 0 17 2 24 5 18 2 -7 2 -21 0 -30z
m-717 -8 c0 -5 -5 -3 -10 5 -5 8 -10 20 -10 25 0 6 5 3 10 -5 5 -8 10 -19 10
-25z m-293 -77 c-2 -13 -4 -5 -4 17 -1 22 1 32 4 23 2 -10 2 -28 0 -40z m106
0 c-9 -21 -10 -20 -15 15 -3 33 -2 36 11 23 11 -12 12 -21 4 -38z m229 34 c3
-9 1 -26 -3 -37 -6 -15 -8 -11 -8 18 -1 40 4 48 11 19z m165 -34 c-2 -13 -4
-5 -4 17 -1 22 1 32 4 23 2 -10 2 -28 0 -40z m40 0 c-2 -13 -4 -5 -4 17 -1 22
1 32 4 23 2 -10 2 -28 0 -40z m130 12 c1 -16 -1 -30 -7 -30 -5 0 -7 7 -4 15 4
8 2 15 -4 15 -6 0 -8 9 -5 20 7 27 15 18 20 -20z m223 20 c7 -13 7 -26 2 -37
-7 -12 -10 -8 -14 21 -5 41 -3 44 12 16z m100 -15 c0 -19 -4 -35 -8 -35 -4 0
-6 16 -4 35 2 19 6 35 8 35 2 0 4 -16 4 -35z m37 -17 c-2 -13 -4 -5 -4 17 -1
22 1 32 4 23 2 -10 2 -28 0 -40z m40 0 c-2 -13 -4 -5 -4 17 -1 22 1 32 4 23 2
-10 2 -28 0 -40z m40 0 c-2 -13 -4 -5 -4 17 -1 22 1 32 4 23 2 -10 2 -28 0
-40z m63 32 c0 -11 -4 -20 -9 -20 -7 0 -8 17 -2 38 4 10 11 -2 11 -18z m-1141
-35 c0 -5 -4 -3 -9 5 -5 8 -9 22 -9 30 0 16 17 -16 18 -35z m26 16 c0 -16 -3
-27 -7 -24 -13 7 -7 53 6 53 1 0 1 -13 1 -29z m80 0 c0 -16 -3 -27 -7 -24 -13
7 -7 53 6 53 1 0 1 -13 1 -29z m142 -18 c-3 -10 -5 -2 -5 17 0 19 2 27 5 18 2
-10 2 -26 0 -35z m33 37 c0 -5 -2 -10 -4 -10 -3 0 -8 5 -11 10 -3 6 -1 10 4
10 6 0 11 -4 11 -10z m75 -19 c0 -16 -3 -27 -7 -24 -13 7 -7 53 6 53 1 0 1
-13 1 -29z m72 -18 c-3 -10 -5 -2 -5 17 0 19 2 27 5 18 2 -10 2 -26 0 -35z
m125 22 c3 -14 1 -28 -3 -31 -5 -3 -9 9 -9 25 0 38 6 40 12 6z m148 -24 c-1
-10 -6 -7 -15 9 -19 33 -18 50 0 26 8 -11 15 -27 15 -35z m90 14 c0 -19 -5
-35 -11 -35 -5 0 -7 5 -4 10 3 6 -1 10 -9 10 -9 0 -16 4 -16 10 0 5 7 7 16 3
13 -5 15 -2 9 15 -4 13 -2 22 4 22 6 0 11 -16 11 -35z m32 0 c3 -13 1 -22 -3
-19 -9 5 -13 44 -5 44 2 0 6 -11 8 -25z m-614 -16 c13 -16 20 -29 16 -29 -7 0
-54 48 -54 56 0 12 17 0 38 -27z m-271 7 c0 -8 -6 -12 -15 -9 -11 5 -11 7 0
14 7 5 13 9 14 9 0 0 1 -6 1 -14z m1203 -6 c0 -5 -5 -10 -11 -10 -5 0 -7 5 -4
10 3 6 8 10 11 10 2 0 4 -4 4 -10z"/>
<path d="M1360 1803 c-13 -15 -12 -16 4 -10 10 4 20 7 22 7 2 0 4 5 4 10 0 15
-13 12 -30 -7z"/>
<path d="M932 1760 c0 -14 2 -19 5 -12 2 6 2 18 0 25 -3 6 -5 1 -5 -13z"/>
<path d="M1091 1709 c-13 -5 -47 -7 -75 -4 -47 6 -50 5 -32 -9 11 -9 35 -16
52 -16 36 0 84 18 84 32 0 4 -1 8 -2 7 -2 0 -14 -5 -27 -10z"/>
<path d="M1101 1641 l-24 -6 26 -12 c16 -8 29 -9 32 -3 4 6 0 10 -7 10 -9 0
-9 3 2 10 17 11 7 11 -29 1z"/>
<path d="M725 1610 c-3 -5 1 -10 10 -10 8 0 33 -12 55 -26 21 -14 44 -24 51
-22 13 4 -80 68 -99 68 -6 0 -14 -4 -17 -10z"/>
</g>
</svg>
