<?xml version="1.0" standalone="no"?>
<!DOCTYPE svg PUBLIC "-//W3C//DTD SVG 20010904//EN"
 "http://www.w3.org/TR/2001/REC-SVG-20010904/DTD/svg10.dtd">
<svg version="1.0" xmlns="http://www.w3.org/2000/svg"
 width="242.000000pt" height="347.000000pt" viewBox="0 0 242.000000 347.000000"
 preserveAspectRatio="xMidYMid meet">

<g transform="translate(0.000000,347.000000) scale(0.100000,-0.100000)"
fill="#000000" stroke="none">
<path d="M1738 3313 c7 -3 16 -2 19 1 4 3 -2 6 -13 5 -11 0 -14 -3 -6 -6z"/>
<path d="M1758 3274 l-28 -39 0 35 c0 24 -3 31 -11 23 -5 -5 -9 -30 -7 -53 l3
-43 28 39 27 39 0 -35 c0 -24 3 -31 11 -23 5 5 9 30 7 53 l-3 43 -27 -39z"/>
<path d="M2100 3081 c0 -179 2 -232 13 -242 7 -8 16 -22 20 -31 7 -19 42 -24
52 -8 3 6 -1 10 -10 10 -28 0 -35 49 -35 256 0 194 -6 244 -30 244 -5 0 -9
-101 -10 -229z"/>
<path d="M1958 3283 c-16 -17 -18 -45 -18 -254 0 -129 -4 -239 -8 -245 -4 -6
-16 -16 -27 -22 -19 -11 -19 -11 -1 -12 10 0 34 16 53 35 23 24 43 35 63 35
50 0 60 28 60 165 0 81 -4 125 -12 133 -16 16 -65 15 -75 0 -4 -8 -10 30 -13
86 -5 94 -6 97 -22 79z m76 -189 c3 -9 6 -64 6 -123 0 -118 -13 -158 -44 -132
-13 11 -16 35 -16 130 0 115 7 141 36 141 6 0 15 -7 18 -16z"/>
<path d="M1631 3258 c-5 -13 -12 -34 -16 -48 -7 -24 -7 -24 9 -5 8 11 16 27
16 35 1 8 6 3 12 -12 5 -16 14 -28 19 -28 12 0 12 1 -6 44 -18 42 -23 44 -34
14z"/>
<path d="M1540 3225 c0 -25 5 -45 10 -45 6 0 10 18 10 40 0 22 5 40 10 40 6 0
10 -8 10 -17 0 -12 3 -14 11 -6 16 16 2 33 -27 33 -22 0 -24 -4 -24 -45z"/>
<path d="M1490 3247 c0 -8 -9 -22 -20 -32 -20 -18 -20 -17 -20 8 0 15 -3 27
-7 27 -5 0 -8 -20 -8 -45 0 -25 2 -45 5 -45 3 0 15 15 28 33 l22 32 0 -28 c0
-15 5 -27 10 -27 6 0 10 20 10 45 0 25 -4 45 -10 45 -5 0 -10 -6 -10 -13z"/>
<path d="M1376 3225 c-7 -20 4 -75 15 -75 5 0 9 20 9 45 0 44 -12 60 -24 30z"/>
<path d="M1317 3213 c4 -10 13 -28 21 -41 12 -18 17 -20 23 -10 12 18 11 30
-1 23 -6 -3 -14 5 -20 19 -5 14 -14 26 -19 26 -6 0 -7 -8 -4 -17z"/>
<path d="M1125 3155 c0 -25 3 -45 6 -45 4 0 9 20 11 45 2 26 -1 45 -7 45 -5 0
-10 -20 -10 -45z"/>
<path d="M1187 3158 c-9 -23 -14 -44 -11 -47 2 -3 7 5 11 17 6 25 33 30 33 7
0 -8 5 -15 10 -15 13 0 13 23 -2 55 -15 34 -22 32 -41 -17z m28 12 c3 -5 1
-10 -4 -10 -6 0 -11 5 -11 10 0 6 2 10 4 10 3 0 8 -4 11 -10z"/>
<path d="M1068 3145 c2 -25 8 -45 13 -45 5 0 9 20 9 45 0 29 -4 45 -13 45 -8
0 -11 -14 -9 -45z"/>
<path d="M1014 3172 c2 -4 -4 -19 -15 -32 l-19 -25 0 28 c0 15 -6 27 -13 27
-8 0 -11 -14 -9 -45 2 -25 8 -45 13 -45 5 0 9 5 9 11 0 6 9 22 20 36 l20 26 0
-32 c0 -17 4 -31 10 -31 5 0 9 20 8 45 0 32 -5 45 -15 45 -8 0 -12 -4 -9 -8z"/>
<path d="M1312 3160 c0 -14 2 -19 5 -12 2 6 2 18 0 25 -3 6 -5 1 -5 -13z"/>
<path d="M881 3138 c1 -17 2 -19 6 -5 8 30 23 19 23 -17 0 -19 -6 -37 -12 -39
-7 -3 1 -5 17 -5 17 0 24 2 18 5 -8 2 -13 22 -13 44 0 32 -3 39 -20 39 -14 0
-20 -6 -19 -22z"/>
<path d="M1857 3137 c-16 -13 -27 -33 -27 -47 0 -14 -4 -31 -9 -39 -7 -11 -11
-4 -17 24 -6 33 -4 41 16 57 20 16 20 18 4 18 -11 0 -30 -11 -44 -23 -20 -18
-29 -43 -48 -138 -12 -63 -22 -124 -22 -134 0 -17 1 -17 19 -1 12 11 24 43 32
87 7 37 15 66 19 64 14 -8 18 -60 10 -105 -5 -25 -6 -47 -3 -50 11 -11 41 42
47 85 9 54 20 51 35 -8 11 -44 35 -76 48 -63 4 4 -5 55 -20 114 -15 59 -27
113 -27 120 0 7 11 24 25 37 21 22 22 25 6 25 -10 0 -30 -10 -44 -23z m-100
-149 c-3 -8 -6 -5 -6 6 -1 11 2 17 5 13 3 -3 4 -12 1 -19z"/>
<path d="M788 3095 c3 -36 8 -45 22 -45 11 0 22 5 25 11 4 6 0 9 -11 7 -24 -4
-31 29 -7 35 17 4 17 5 -1 6 -12 1 -16 6 -12 16 3 8 0 15 -7 15 -8 0 -11 -14
-9 -45z"/>
<path d="M726 3114 c-3 -8 -1 -24 4 -35 6 -11 8 -24 5 -29 -3 -6 -1 -10 4 -10
6 0 11 20 11 45 0 45 -12 60 -24 29z"/>
<path d="M1502 3118 c-7 -7 -12 -38 -12 -71 0 -58 0 -58 -27 -55 -27 3 -28 5
-28 65 0 55 -2 60 -17 52 -14 -7 -18 -22 -18 -59 0 -44 -3 -51 -29 -64 -63
-33 -63 -116 0 -139 30 -12 31 -14 25 -57 -3 -25 -14 -51 -23 -57 -15 -11 -15
-13 -1 -13 23 0 68 73 61 99 -4 15 1 27 13 36 17 13 17 14 2 9 -16 -5 -18 1
-18 50 l0 56 31 0 32 0 -5 -105 c-4 -89 -8 -108 -24 -120 -10 -8 -14 -15 -7
-15 7 0 24 16 38 35 26 34 27 37 28 200 1 91 0 165 -3 165 -4 0 -11 -5 -18
-12z m-85 -220 c-2 -18 -4 -6 -4 27 0 33 2 48 4 33 2 -15 2 -42 0 -60z m-17
12 c0 -33 -3 -60 -8 -60 -20 0 -52 34 -52 56 0 24 31 64 50 64 6 0 10 -27 10
-60z"/>
<path d="M663 3075 c-1 -25 2 -45 7 -45 4 0 6 9 3 20 -6 24 12 27 21 3 6 -15
8 -15 16 -3 12 19 13 33 1 26 -4 -3 -13 6 -19 19 -17 37 -27 30 -29 -20z"/>
<path d="M1638 2998 c4 -105 2 -125 -12 -137 -14 -11 -17 -10 -26 14 -5 14
-10 74 -10 132 0 105 0 106 -20 88 -18 -16 -20 -31 -20 -130 0 -131 10 -157
54 -137 21 9 31 9 46 0 11 -7 20 -16 20 -20 0 -5 14 -8 30 -8 17 0 30 4 30 10
0 5 -6 7 -14 4 -25 -9 -31 18 -36 161 -5 133 -6 140 -26 143 -21 3 -21 0 -16
-120z"/>
<path d="M866 3093 c-3 -10 -9 -24 -12 -31 -3 -7 0 -10 8 -7 8 3 15 17 16 30
2 29 -3 32 -12 8z"/>
<path d="M363 3085 c-17 -7 -36 -22 -42 -34 -7 -12 -11 -104 -11 -248 0 -256
4 -273 62 -273 48 0 95 21 107 47 6 13 11 57 11 97 0 64 3 75 25 96 l25 23 0
-57 c0 -63 13 -77 59 -59 22 8 30 5 51 -14 25 -24 54 -30 65 -14 3 5 -5 11
-17 13 -22 3 -23 6 -26 142 -3 136 -9 166 -37 166 -9 0 -12 -34 -11 -132 1
-127 0 -133 -19 -133 -19 0 -20 8 -23 123 -1 67 -6 122 -10 122 -20 0 -32 -28
-32 -75 0 -42 -3 -52 -22 -60 -13 -6 -32 -28 -44 -50 -12 -22 -32 -49 -44 -61
-19 -18 -19 -22 -6 -34 36 -29 12 -130 -30 -130 -27 0 -34 51 -34 258 0 177 3
212 18 242 23 46 61 54 63 13 7 -136 -11 -213 -49 -213 -8 0 -12 -6 -9 -12 2
-7 14 -13 28 -13 17 0 29 11 45 40 12 22 33 50 45 63 20 19 22 25 11 42 -6 11
-12 34 -12 51 0 32 -15 69 -34 81 -17 12 -68 9 -103 -7z m-26 -367 c-2 -29 -3
-6 -3 52 0 58 1 81 3 53 2 -29 2 -77 0 -105z"/>
<path d="M1235 3063 c-49 -12 -55 -28 -55 -159 0 -137 6 -149 66 -138 54 9 64
33 64 159 0 138 -9 154 -75 138z m35 -148 c0 -128 -9 -157 -37 -119 -11 14
-14 44 -11 120 3 98 17 142 39 128 5 -3 9 -61 9 -129z"/>
<path d="M862 3018 c-7 -7 -12 -38 -12 -70 0 -61 -1 -62 -39 -51 -22 6 -23 9
-18 64 5 55 4 58 -14 48 -15 -7 -19 -21 -19 -59 0 -44 -3 -51 -29 -64 -61 -32
-62 -116 -1 -137 26 -9 30 -16 30 -47 0 -23 -8 -44 -22 -59 -16 -17 -18 -23
-7 -23 23 0 71 78 63 102 -4 13 1 25 13 35 16 13 16 14 1 9 -16 -5 -18 2 -18
55 0 59 1 61 23 55 12 -3 25 -6 30 -6 4 0 7 -43 7 -95 0 -82 -3 -98 -20 -115
-18 -18 -18 -20 -2 -20 9 0 24 13 34 29 12 23 21 28 38 24 15 -4 30 3 51 23
29 28 29 28 29 146 0 104 2 118 19 127 10 6 21 7 25 4 3 -3 6 -60 6 -125 0
-98 3 -118 15 -118 20 0 25 26 28 150 2 91 4 105 20 108 15 3 17 -8 17 -122 0
-69 4 -126 8 -126 25 0 32 30 32 142 0 125 -1 126 -50 119 -8 -1 -37 -6 -65
-10 -38 -6 -56 -4 -72 7 l-23 14 0 -150 c0 -124 -3 -153 -16 -166 -16 -17 -35
-21 -32 -8 0 4 -2 14 -6 23 -4 9 -6 80 -4 158 2 77 1 141 -2 141 -3 0 -11 -5
-18 -12z m5 -210 c-2 -18 -4 -4 -4 32 0 36 2 50 4 33 2 -18 2 -48 0 -65z m-90
-25 c-2 -21 -4 -6 -4 32 0 39 2 55 4 38 2 -18 2 -50 0 -70z m-17 32 c0 -46 -3
-55 -18 -55 -43 0 -57 55 -22 90 32 32 40 24 40 -35z"/>
<path d="M2012 2742 c-17 -11 -14 -112 3 -112 7 0 23 8 36 18 16 14 20 24 14
38 -4 10 -8 28 -9 39 -1 21 -23 30 -44 17z m25 -33 c-3 -11 -1 -19 4 -19 14 0
10 -26 -6 -40 -13 -11 -15 -6 -15 39 0 35 4 50 11 45 6 -3 9 -15 6 -25z"/>
<path d="M1928 2733 c-21 -2 -38 -9 -38 -14 0 -6 -4 -8 -10 -4 -5 3 -19 3 -32
0 -20 -5 -23 -12 -23 -60 0 -37 4 -55 13 -55 8 0 12 18 12 56 0 40 3 54 13 51
6 -2 12 -13 11 -25 0 -12 3 -19 8 -16 4 3 8 13 8 24 0 15 18 30 36 30 2 0 4
-22 4 -50 0 -66 18 -64 22 3 2 42 6 52 21 51 9 -1 17 2 17 7 0 5 -6 8 -12 7
-7 -1 -30 -3 -50 -5z"/>
<path d="M1785 2700 c3 -5 8 -10 11 -10 2 0 4 5 4 10 0 6 -5 10 -11 10 -5 0
-7 -4 -4 -10z"/>
<path d="M1745 2645 c0 -43 3 -55 16 -55 11 0 14 7 11 29 -3 22 0 30 15 34 15
4 15 5 -4 6 -16 1 -20 6 -16 21 3 13 0 20 -8 20 -10 0 -14 -15 -14 -55z"/>
<path d="M1676 2648 l-17 -43 -16 38 c-22 54 -38 47 -38 -18 0 -60 12 -75 17
-22 l3 32 17 -30 17 -30 11 32 c13 37 34 34 27 -4 -3 -15 0 -22 7 -20 6 2 11
9 10 15 -1 7 -2 30 -2 52 -2 52 -15 51 -36 -2z"/>
<path d="M1536 2654 c-15 -14 -22 -34 -12 -34 2 0 11 11 20 25 19 28 15 33 -8
9z"/>
<path d="M1486 2643 c9 -23 9 -52 0 -78 -7 -17 -5 -16 12 4 13 16 21 20 26 12
4 -6 4 -15 1 -21 -3 -5 1 -10 9 -10 21 0 20 4 -11 61 -26 46 -54 70 -37 32z"/>
<path d="M1430 2638 c0 -7 -12 -26 -26 -43 l-25 -30 3 38 c3 23 0 37 -8 37 -7
0 -11 -19 -10 -55 0 -55 10 -71 20 -37 4 11 18 30 32 43 l26 24 -4 -37 c-2
-23 0 -38 7 -38 6 0 10 23 10 55 0 37 -4 55 -12 55 -7 0 -13 -6 -13 -12z"/>
<path d="M1310 2610 c-5 -71 -4 -90 5 -90 6 0 9 18 7 43 -4 57 -9 77 -12 47z"/>
<path d="M1240 2565 c0 -34 4 -55 11 -55 7 0 9 10 7 25 -3 14 -1 25 6 25 6 0
5 4 -3 9 -8 5 -11 16 -6 30 4 12 2 21 -4 21 -7 0 -11 -23 -11 -55z"/>
<path d="M1153 2573 c-10 -21 -10 -28 0 -35 9 -6 9 -11 -1 -28 -14 -23 -1 -27
18 -5 7 9 9 22 5 32 -5 10 -7 28 -6 41 3 29 -1 28 -16 -5z"/>
<path d="M1075 2580 c3 -5 -8 -24 -24 -42 l-30 -33 -1 38 c0 20 -4 37 -10 37
-5 0 -8 -25 -7 -55 1 -37 6 -55 15 -55 7 0 11 4 8 8 -3 5 8 24 25 43 l30 34
-4 -37 c-2 -24 1 -38 8 -38 7 0 11 20 11 55 -1 38 -5 55 -14 55 -7 0 -11 -4
-7 -10z"/>
<path d="M918 2535 c4 -22 1 -25 -28 -25 -27 0 -32 3 -27 20 3 11 0 20 -6 20
-8 0 -12 -20 -12 -55 0 -33 4 -55 11 -55 6 0 9 13 6 30 -4 28 -2 30 28 30 29
0 32 -3 28 -25 -3 -14 -1 -25 3 -25 5 0 9 25 9 55 0 30 -4 55 -9 55 -4 0 -6
-11 -3 -25z"/>
<path d="M793 2533 c3 -5 -8 -24 -24 -43 l-29 -34 0 37 c0 23 -5 37 -12 37 -9
0 -12 -16 -10 -55 2 -30 8 -55 13 -55 5 0 9 5 9 10 0 15 42 70 53 70 5 0 7
-16 4 -36 -4 -22 -2 -34 4 -32 6 2 10 7 10 11 -1 4 -1 27 -1 52 0 25 -5 45
-11 45 -5 0 -8 -3 -6 -7z"/>
<path d="M658 2523 c-23 -4 -28 -9 -27 -31 2 -24 2 -24 6 -4 2 12 11 22 19 22
10 0 14 -13 14 -45 0 -36 -4 -45 -17 -47 -33 -2 -38 -4 -50 -11 -7 -5 -13 -14
-13 -20 0 -8 3 -7 9 2 5 8 28 14 55 15 45 1 57 8 35 22 -7 4 -9 25 -7 55 3 27
5 48 4 48 -1 -1 -13 -4 -28 -6z"/>
<path d="M500 2480 c-24 -24 -26 -63 -4 -84 25 -26 34 -18 16 13 -13 24 -14
34 -4 55 6 15 20 26 31 26 32 0 43 -57 15 -84 -8 -9 -11 -16 -6 -16 17 0 42
36 42 61 0 49 -53 66 -90 29z"/>
<path d="M1115 2490 c3 -5 8 -10 11 -10 2 0 4 5 4 10 0 6 -5 10 -11 10 -5 0
-7 -4 -4 -10z"/>
<path d="M621 2444 c0 -11 3 -14 6 -6 3 7 2 16 -1 19 -3 4 -6 -2 -5 -13z"/>
<path d="M1450 2428 c-41 -5 -87 -6 -102 -4 -69 13 -209 -50 -315 -141 -76
-66 -192 -217 -199 -258 -1 -5 -16 -45 -33 -88 -17 -43 -31 -83 -31 -89 0 -6
15 -29 33 -52 57 -71 136 -321 125 -397 -3 -21 1 -45 12 -65 11 -19 15 -36 10
-45 -6 -9 1 -22 21 -40 16 -14 29 -31 29 -37 0 -6 19 -29 43 -50 64 -59 257
-222 284 -239 27 -18 29 -35 8 -53 -13 -11 -22 -9 -51 6 -54 29 -218 167 -320
270 -97 98 -152 134 -208 134 -29 0 -46 -10 -96 -57 -53 -50 -65 -69 -89 -139
-38 -105 -59 -146 -115 -218 -54 -69 -59 -109 -21 -171 14 -22 25 -48 25 -58
0 -9 -31 -79 -70 -155 -64 -126 -130 -300 -130 -341 0 -9 -5 -22 -12 -29 -15
-15 -48 -16 -48 -1 0 7 -34 9 -100 7 l-100 -3 0 -57 0 -58 1211 0 1211 0 -7
23 c-3 12 -9 33 -12 46 -5 21 -10 23 -48 17 -30 -4 -47 -1 -54 8 -12 14 -77
28 -121 27 -14 -1 -60 -2 -103 -2 l-78 -1 -17 -34 c-13 -27 -18 -31 -24 -19
-7 11 -26 15 -72 15 l-64 0 -31 78 c-16 42 -54 149 -82 237 -28 88 -56 166
-61 173 -6 6 -27 12 -47 12 -32 1 -44 9 -113 84 -69 75 -78 88 -84 134 -3 29
-13 57 -20 63 -29 24 -27 73 5 126 17 28 41 53 52 56 11 3 50 -5 85 -19 76
-28 74 -28 74 -9 0 8 7 15 16 15 25 0 84 40 84 56 0 8 8 22 18 32 33 36 52 62
52 73 0 7 12 23 26 36 25 23 26 25 8 39 -17 12 -17 13 -1 8 13 -5 17 -1 15 17
-2 15 4 27 19 34 13 7 20 15 15 20 -4 4 2 5 13 1 11 -4 16 -4 13 0 -4 4 -3 14
2 24 8 15 5 16 -17 12 -18 -3 -24 -1 -19 7 4 6 13 11 20 11 18 0 24 40 21 129
-2 62 1 77 17 93 21 21 42 13 53 -23 9 -26 25 -14 25 19 0 30 34 92 50 92 5 0
9 -6 7 -12 -1 -7 5 -13 13 -13 23 0 39 44 46 126 4 41 12 80 18 88 8 11 8 13
0 8 -7 -4 -15 0 -18 9 -10 27 -7 92 5 96 16 5 -13 60 -63 121 -32 37 -38 50
-29 61 14 17 12 18 -56 40 -28 10 -57 23 -63 31 -24 29 -137 94 -175 101 -22
4 -62 19 -90 34 -66 35 -86 39 -175 28z m371 -128 l24 -21 -32 16 c-32 15 -42
25 -24 25 5 0 19 -9 32 -20z m84 -594 c-1 -26 -12 -56 -26 -75 -27 -37 -54
-42 -45 -8 3 12 6 37 6 56 0 25 4 32 15 27 8 -3 14 -1 12 4 -1 6 29 38 40 40
1 0 0 -20 -2 -44z m-200 -36 c10 0 13 -10 10 -31 -5 -42 -7 -43 -39 -10 -28
29 -27 58 1 47 8 -3 21 -6 28 -6z m-278 -66 c-3 -4 1 -13 9 -21 8 -8 12 -19 9
-24 -4 -5 1 -9 9 -9 10 0 16 -9 16 -22 1 -23 1 -23 15 2 l14 25 1 -31 c0 -32
-20 -84 -32 -84 -5 0 -8 -8 -8 -17 0 -19 -20 -80 -32 -98 -3 -5 -12 -38 -18
-73 -7 -34 -16 -61 -20 -60 -21 8 -99 90 -106 110 -18 55 -12 88 17 88 12 0
19 7 19 20 0 13 -7 20 -20 20 -25 0 -27 20 -2 20 19 1 95 92 111 133 6 15 14
27 17 27 4 0 5 -3 1 -6z m-150 -126 c-3 -7 -5 -2 -5 12 0 14 2 19 5 13 2 -7 2
-19 0 -25z m-72 -48 c9 -14 -6 -81 -16 -74 -5 3 -9 -7 -9 -23 -1 -36 -24 -67
-45 -60 -20 8 -20 78 0 117 21 40 57 61 70 40z m62 -37 c-3 -10 -5 -2 -5 17 0
19 2 27 5 18 2 -10 2 -26 0 -35z"/>
<path d="M1851 1624 c0 -11 3 -14 6 -6 3 7 2 16 -1 19 -3 4 -6 -2 -5 -13z"/>
</g>
</svg>
