<?xml version="1.0" standalone="no"?>
<!DOCTYPE svg PUBLIC "-//W3C//DTD SVG 20010904//EN"
 "http://www.w3.org/TR/2001/REC-SVG-20010904/DTD/svg10.dtd">
<svg version="1.0" xmlns="http://www.w3.org/2000/svg"
 width="242.000000pt" height="347.000000pt" viewBox="0 0 242.000000 347.000000"
 preserveAspectRatio="xMidYMid meet">

<g transform="translate(0.000000,347.000000) scale(0.100000,-0.100000)"
fill="#000000" stroke="none">
<path d="M2 2428 c1 -574 3 -1026 5 -1005 2 20 8 35 14 32 5 -4 9 -2 9 4 0 6
6 8 13 5 7 -2 26 7 43 21 16 14 34 25 41 25 7 0 17 9 23 21 7 11 14 18 17 15
3 -3 18 1 34 9 16 9 40 16 54 17 14 1 25 6 25 11 0 5 7 4 15 -3 13 -10 15 -9
15 9 0 18 6 21 43 21 31 0 49 6 61 19 15 17 21 18 37 8 16 -10 21 -9 28 2 6 9
18 11 40 6 40 -9 47 -6 43 19 -2 15 0 17 6 8 8 -11 10 -11 15 2 3 8 1 17 -6
20 -9 5 -9 7 0 12 7 3 13 12 13 20 0 17 16 19 26 3 3 -6 1 -15 -6 -19 -7 -4
-10 -12 -6 -18 3 -6 0 -12 -6 -15 -7 -2 -9 -8 -5 -13 5 -5 13 0 19 11 11 18
12 18 18 1 6 -17 7 -17 20 0 9 11 10 15 3 10 -8 -4 -13 -2 -13 8 0 8 4 18 10
21 6 3 10 19 10 36 0 16 -4 29 -10 29 -5 0 -10 8 -10 18 -1 15 -2 15 -16 -3
-8 -11 -26 -20 -39 -20 -18 -1 -22 2 -13 12 5 7 14 11 18 8 4 -2 16 2 26 10
41 31 55 7 56 -94 0 -45 2 -51 18 -46 14 4 19 -2 24 -30 4 -20 11 -33 15 -31
14 9 33 -46 39 -109 6 -66 34 -121 76 -148 14 -10 26 -24 26 -31 0 -22 77
-168 105 -200 27 -32 32 -41 13 -30 -7 5 -9 2 -5 -8 3 -9 8 -65 11 -124 3 -60
3 -101 0 -92 -3 10 -9 18 -13 18 -24 0 -118 -86 -184 -168 -15 -19 -27 -28
-27 -20 0 7 -11 0 -23 -16 -14 -17 -29 -26 -35 -22 -13 8 -76 -22 -152 -74
-119 -81 -197 -130 -207 -130 -13 0 -73 -66 -73 -80 0 -12 -68 -41 -89 -39
-36 3 -44 -1 -32 -14 12 -15 5 -27 -16 -27 -7 0 -13 8 -13 18 0 26 -45 43 -67
26 -14 -11 -15 -13 -3 -14 13 0 13 -1 0 -10 -24 -15 -30 -12 -45 23 -13 29
-14 16 -15 -150 l0 -183 1210 0 1210 0 0 125 0 125 -33 0 c-40 0 -63 23 -100
100 -38 80 -81 128 -126 140 -21 5 -53 21 -72 35 -19 13 -45 29 -58 35 -13 6
-54 32 -90 58 -36 26 -91 61 -121 76 -30 16 -66 36 -80 46 -14 10 -35 21 -47
24 -13 4 -42 30 -65 57 -23 28 -60 64 -82 80 -39 28 -39 28 -50 7 -23 -44 -31
-13 -28 105 2 80 -1 117 -9 117 -6 0 1 21 16 48 23 40 28 65 36 167 5 66 14
135 20 153 6 18 12 69 13 115 2 67 7 92 30 137 25 47 28 62 23 112 -5 60 -35
125 -56 120 -6 -1 -16 10 -21 24 -11 27 -48 79 -57 79 -3 0 -36 30 -74 66 -74
71 -148 108 -217 110 -30 0 -33 2 -17 9 17 7 16 9 -10 10 -146 8 -187 6 -211
-6 -37 -19 -42 -10 -8 13 22 14 47 18 119 17 164 -1 298 -18 338 -43 48 -30
157 -148 157 -170 0 -10 7 -24 16 -32 21 -17 44 -63 44 -89 0 -11 5 -20 11
-20 6 0 9 -7 6 -15 -4 -8 0 -36 7 -62 8 -26 14 -55 14 -63 0 -8 1 -19 2 -25 5
-19 0 -36 -9 -31 -5 3 -11 -11 -15 -32 -11 -70 -12 -69 55 -71 34 -1 66 -3 73
-4 6 -1 10 5 8 13 -1 8 6 4 17 -9 l19 -25 -5 27 c-4 22 -1 27 23 33 21 5 31 2
43 -13 12 -14 22 -18 36 -12 37 14 190 30 253 27 34 -2 62 1 62 5 0 5 12 7 28
6 59 -4 82 1 82 19 0 14 3 13 18 -6 10 -13 21 -20 25 -16 10 11 47 12 47 2 0
-4 5 -8 10 -8 16 0 14 932 -2 948 -9 9 -9 12 0 12 9 0 12 98 12 410 l0 410
-1210 0 -1210 0 2 -1042z m1787 830 c-2 -30 -3 -35 -6 -15 -2 15 -9 27 -15 27
-6 0 -6 6 2 15 18 22 20 19 19 -27z m351 -163 c0 -221 6 -276 32 -283 21 -5
24 -18 5 -25 -18 -7 -29 1 -52 38 -19 28 -20 46 -17 253 3 194 5 222 18 212
11 -10 14 -48 14 -195z m-410 169 c0 -17 4 -23 13 -18 7 5 7 1 -3 -12 -8 -10
-15 -20 -16 -22 -1 -2 -4 15 -6 37 -2 23 0 41 4 41 5 0 8 -12 8 -26z m250
-193 c0 -182 3 -221 15 -231 12 -10 18 -10 30 0 12 10 15 39 15 140 0 114 -2
129 -17 132 -15 3 -15 5 -3 9 8 4 25 3 38 -2 21 -8 22 -13 22 -139 0 -118 -2
-132 -21 -151 -14 -14 -28 -19 -44 -15 -19 5 -30 -1 -52 -29 -19 -23 -36 -35
-53 -35 l-25 0 27 23 27 22 6 232 c3 128 8 239 11 247 18 47 24 -5 24 -203z
m-315 172 c8 -20 13 -38 10 -41 -4 -4 -35 59 -35 73 0 15 12 1 25 -32z m-69 9
c1 -7 0 -8 -3 -2 -12 25 -32 8 -36 -32 l-4 -43 -1 48 c-2 44 0 48 20 45 12 -2
23 -9 24 -16z m-86 -37 c0 -25 -4 -45 -8 -45 -5 0 -6 15 -4 32 5 31 4 32 -14
18 -17 -14 -16 -13 1 12 11 15 21 28 23 28 1 0 2 -20 2 -45z m-47 -18 c7 4 5
-2 -3 -13 -8 -10 -16 -21 -17 -23 -2 -2 -2 18 -1 45 1 37 2 41 5 16 3 -22 8
-30 16 -25z m171 19 c-3 -14 -10 -26 -14 -26 -5 0 -3 13 3 30 13 35 21 33 11
-4z m-236 -23 c-1 -41 -2 -43 -5 -13 l-5 35 -18 -34 c-16 -33 -18 -33 -24 -13
-4 12 -12 20 -17 17 -5 -4 -9 5 -9 19 0 35 9 33 22 -6 l11 -31 19 36 c10 21
21 37 23 37 3 0 4 -21 3 -47z m-165 -28 c9 -19 12 -35 7 -35 -5 0 -12 11 -16
25 -3 14 -10 25 -15 25 -5 0 -9 5 -9 10 0 21 17 8 33 -25z m-143 -20 c0 -25
-3 -45 -8 -45 -4 0 -6 20 -4 45 2 25 6 45 8 45 2 0 4 -20 4 -45z m47 -17 c-2
-13 -4 -3 -4 22 0 25 2 35 4 23 2 -13 2 -33 0 -45z m-97 7 c0 -25 -4 -45 -9
-45 -5 0 -8 14 -7 30 1 17 -1 30 -6 30 -4 0 -5 7 -2 15 12 30 24 14 24 -30z
m-60 9 c0 -24 2 -25 18 -13 16 13 16 13 0 -7 -10 -11 -18 -26 -18 -32 0 -7 -3
-12 -7 -12 -5 0 -8 20 -8 45 0 25 3 45 8 45 4 0 7 -12 7 -26z m218 -4 c-15
-24 -19 -21 -11 8 3 12 9 19 14 16 5 -3 3 -14 -3 -24z m-276 -16 c-3 -24 0
-39 9 -45 11 -7 9 -9 -6 -9 -17 0 -20 7 -20 45 0 25 5 45 10 45 7 0 9 -15 7
-36z m968 16 c-26 -26 -25 -58 5 -161 26 -88 30 -119 17 -119 -18 0 -32 27
-43 82 -6 32 -15 56 -19 53 -4 -2 -11 -28 -14 -57 -7 -48 -28 -88 -46 -88 -5
0 -3 18 2 40 11 41 3 130 -11 130 -5 0 -14 -33 -20 -74 -12 -73 -32 -118 -47
-104 -4 4 6 67 22 139 29 126 31 131 64 152 l35 21 -18 -21 c-15 -17 -18 -30
-12 -62 8 -49 21 -45 30 9 4 25 16 47 32 60 33 26 49 26 23 0z m-1084 -45 c0
-25 -3 -45 -8 -45 -4 0 -8 20 -8 45 0 59 15 59 16 0z m-57 -12 l-1 -48 -8 40
c-7 37 -5 55 6 55 2 0 3 -21 3 -47z m-49 -11 c0 -7 4 -10 10 -7 6 4 7 -1 3
-11 -5 -14 -7 -14 -18 5 -6 12 -14 18 -18 15 -4 -4 -7 6 -7 22 1 28 1 28 15
10 8 -11 15 -26 15 -34z m832 -252 c6 0 2 -10 -9 -22 -11 -13 -23 -31 -26 -41
-7 -18 -34 -33 -43 -24 -3 3 4 15 15 26 18 18 21 33 21 116 0 52 -3 95 -7 95
-5 0 -18 3 -31 6 l-23 7 2 -100 c2 -90 0 -103 -20 -131 -12 -18 -29 -32 -37
-32 -12 0 -11 5 5 26 23 29 29 94 9 95 -10 0 -10 2 0 6 18 7 17 123 -1 123
-21 0 -45 -32 -50 -65 l-4 -30 -2 30 c-1 30 37 85 59 85 6 0 10 18 10 41 0 40
14 79 28 79 4 0 5 -27 4 -60 l-4 -60 31 0 c31 0 31 0 31 53 0 29 6 59 13 66
10 10 13 -18 15 -138 2 -106 6 -151 14 -151z m136 288 c8 -8 12 -51 12 -129 0
-126 8 -165 37 -172 17 -4 17 -4 1 -11 -12 -6 -27 0 -48 18 -25 20 -35 24 -55
16 -52 -20 -56 -9 -53 133 2 93 7 132 16 135 9 3 12 -24 12 -111 0 -90 3 -117
15 -127 12 -10 18 -10 31 1 13 11 15 33 12 136 -2 68 -1 123 3 123 3 0 10 -5
17 -12z m-1201 -23 c15 -11 24 -30 28 -63 3 -26 10 -55 15 -64 7 -12 6 -20 -4
-25 -7 -4 -25 -32 -40 -61 -28 -55 -50 -72 -68 -54 -7 7 -4 12 10 16 11 4 25
21 31 38 14 39 14 195 1 203 -16 10 -71 -5 -64 -17 5 -7 2 -8 -5 -4 -19 12
-11 -475 8 -497 17 -21 25 -21 45 -1 21 20 21 97 1 117 -13 13 -12 17 8 30 13
8 31 33 42 56 12 27 27 44 42 47 22 6 28 22 23 68 -2 25 20 77 31 70 5 -3 9
-54 9 -113 0 -72 4 -113 13 -125 26 -35 37 4 39 137 2 70 4 127 5 127 1 0 9
-7 17 -16 13 -12 16 -40 16 -139 0 -138 4 -155 32 -155 10 0 16 -4 13 -10 -11
-17 -39 -11 -67 15 -15 14 -30 21 -33 15 -10 -16 -62 -12 -69 6 -3 9 -6 36 -6
60 0 31 -4 44 -14 44 -22 0 -36 -55 -36 -137 0 -65 -3 -77 -25 -98 -35 -36
-108 -37 -137 -3 -16 18 -18 44 -17 237 1 119 4 227 8 241 7 27 72 70 106 70
11 0 30 -7 42 -15z m403 -19 c0 -3 -4 -8 -10 -11 -5 -3 -10 -1 -10 4 0 6 5 11
10 11 6 0 10 -2 10 -4z m430 -32 c12 -30 13 -224 2 -241 -8 -13 -55 -33 -77
-33 -7 0 -21 7 -30 16 -14 14 -15 33 -10 133 6 99 10 119 27 134 31 27 76 22
88 -9z m-418 -145 c-2 -78 0 -149 4 -158 4 -9 6 -19 6 -23 -3 -15 26 -8 39 9
12 14 18 110 19 297 0 5 6 3 14 -4 11 -9 16 -43 18 -138 l3 -127 -30 -28 c-20
-20 -37 -27 -53 -24 -17 3 -26 -2 -37 -23 -14 -28 -38 -44 -49 -33 -3 4 3 12
14 20 18 13 20 26 20 119 l0 104 -30 0 -30 0 0 -61 c0 -54 2 -60 18 -55 14 5
13 3 -3 -9 -15 -12 -17 -19 -9 -33 9 -13 5 -26 -18 -59 -16 -24 -36 -43 -45
-43 -14 0 -13 4 5 20 20 19 22 30 22 131 0 103 -1 109 -18 100 -50 -26 -56
-86 -12 -108 14 -7 19 -13 11 -13 -25 0 -51 32 -51 62 0 27 14 45 64 86 10 8
14 21 11 35 -6 24 9 77 22 77 5 0 8 -26 8 -57 0 -58 0 -58 30 -58 29 0 30 1
27 43 -3 27 2 52 12 67 9 14 17 25 19 25 1 0 1 -64 -1 -141z m266 21 c3 -114
-2 -150 -21 -150 -9 0 -11 29 -9 117 3 104 2 118 -15 131 -16 12 -15 13 12 10
l30 -3 3 -105z m-94 94 c13 -5 16 -25 16 -114 0 -114 -4 -140 -24 -140 -9 0
-11 30 -8 117 4 104 3 118 -14 130 -15 11 -15 13 -2 13 9 0 23 -3 32 -6z m311
-144 c3 -5 1 -10 -4 -10 -6 0 -11 5 -11 10 0 6 2 10 4 10 3 0 8 -4 11 -10z
m692 -96 c-3 -3 -12 -4 -19 -1 -8 3 -5 6 6 6 11 1 17 -2 13 -5z m33 -63 c0
-28 -4 -53 -10 -56 -6 -4 -8 6 -6 25 2 17 0 33 -5 35 -9 6 -55 -53 -51 -66 1
-5 -4 -9 -10 -9 -9 0 -13 18 -13 55 0 32 4 55 10 55 7 0 9 -15 7 -37 l-4 -38
26 24 c14 13 28 32 32 43 11 35 24 18 24 -31z m-120 -26 c0 -30 -4 -55 -10
-55 -5 0 -10 19 -10 41 l0 42 -30 -38 c-16 -21 -30 -42 -30 -46 0 -5 -3 -9 -7
-9 -5 0 -8 25 -8 55 0 32 4 55 10 55 7 0 9 -16 7 -37 l-4 -38 34 35 c19 19 33
38 31 43 -2 4 1 7 6 7 7 0 11 -23 11 -55z m-130 -20 c0 -30 -4 -55 -10 -55 -5
0 -10 25 -10 55 0 30 5 55 10 55 6 0 10 -25 10 -55z m-70 -10 c0 -30 -3 -55
-7 -55 -5 0 -8 25 -8 55 0 30 3 55 8 55 4 0 7 -25 7 -55z m-58 -10 c3 -50 1
-55 -17 -55 -15 0 -17 2 -6 9 9 6 12 23 10 55 -2 25 -1 46 3 46 3 0 8 -25 10
-55z m-50 -7 c2 -29 4 -53 4 -54 -1 -1 -17 -4 -36 -7 l-35 -5 0 54 c0 30 3 54
8 54 4 0 7 -21 7 -46 0 -38 3 -45 18 -42 13 3 17 14 17 51 0 64 12 60 17 -5z
m-112 -72 c-9 -8 -11 -6 -10 9 1 11 2 28 1 39 -1 16 -3 16 -17 5 -8 -7 -22
-25 -30 -41 -21 -41 -29 -35 -29 27 0 38 4 55 13 55 8 0 11 -9 8 -25 -8 -41
12 -38 41 7 l28 42 3 -54 c2 -30 -2 -58 -8 -64z m257 98 c-3 -3 -12 -4 -19 -1
-8 3 -5 6 6 6 11 1 17 -2 13 -5z m-547 -20 c0 -8 -19 -13 -24 -6 -3 5 1 9 9 9
8 0 15 -2 15 -3z m170 -43 c0 -28 -3 -52 -7 -54 -5 -3 -6 17 -5 44 3 39 1 49
-11 49 -9 0 -17 -11 -20 -27 -4 -26 -4 -26 -6 5 -1 28 2 32 24 32 23 0 25 -3
25 -49z m796 12 c-10 -10 -19 5 -10 18 6 11 8 11 12 0 2 -7 1 -15 -2 -18z
m-936 -38 c0 -30 -4 -55 -8 -55 -4 0 -6 16 -4 35 2 19 1 35 -2 35 -11 0 -55
-54 -56 -67 0 -7 -3 -13 -7 -13 -5 0 -8 25 -9 55 -1 30 3 55 7 55 5 0 9 -17 9
-37 l1 -38 28 35 c16 19 27 38 25 42 -3 5 0 8 5 8 7 0 11 -23 11 -55z m-125
-20 c0 -30 -4 -55 -10 -55 -6 0 -9 23 -7 55 5 71 17 71 17 0z m-80 -10 c0 -30
-3 -55 -7 -55 -5 0 -8 25 -8 55 0 30 3 55 8 55 4 0 7 -25 7 -55z m-52 38 c-20
-4 -23 -11 -25 -56 l-2 -52 -3 48 c-4 40 -7 47 -26 48 -17 1 -15 3 8 9 17 4
39 8 50 7 16 0 16 -1 -2 -4z m-123 -68 c0 -30 -4 -55 -8 -55 -4 0 -8 25 -7 55
0 30 3 55 8 55 4 0 7 -25 7 -55z m43 41 c3 -8 -1 -22 -8 -33 -13 -17 -14 -16
-8 6 4 14 1 26 -8 32 -11 7 -11 9 2 9 9 0 19 -6 22 -14z m421 -10 c-7 -17 -34
-22 -34 -6 0 6 7 10 15 10 8 0 15 5 15 12 0 6 2 9 5 6 3 -3 3 -13 -1 -22z
m-1184 -6 c0 -5 -4 -10 -10 -10 -5 0 -10 5 -10 10 0 6 5 10 10 10 6 0 10 -4
10 -10z m640 -10 c0 -12 7 -20 18 -21 16 -1 16 -2 0 -6 -12 -3 -18 -14 -18
-34 0 -16 -5 -29 -12 -29 -9 0 -12 16 -10 55 2 30 8 55 13 55 5 0 9 -9 9 -20z
m300 -4 c0 -8 -8 -20 -17 -27 -16 -13 -17 -12 -4 3 7 10 11 25 7 33 -3 9 -2
13 4 10 6 -3 10 -12 10 -19z m-420 4 c0 -5 -9 -10 -20 -10 -17 0 -20 -7 -20
-50 0 -27 -3 -50 -8 -50 -4 0 -7 24 -6 52 2 46 5 54 26 59 12 4 24 7 26 8 1 1
2 -3 2 -9z m32 -45 c2 -39 -1 -55 -9 -55 -9 0 -12 16 -10 55 3 71 14 71 19 0z
m33 29 c0 -10 4 -25 8 -31 5 -7 5 -18 1 -25 -5 -7 -11 -3 -17 13 -13 34 -15
70 -2 66 5 -2 10 -12 10 -23z m1011 6 c40 -16 118 -98 106 -113 -5 -7 -13 -30
-16 -51 -10 -54 -31 -82 -75 -99 -40 -17 -138 -26 -133 -13 4 10 -37 46 -53
46 -20 0 -27 97 -10 136 8 19 12 41 9 49 -4 9 -1 15 7 15 7 0 21 8 32 18 13
10 17 12 12 3 -6 -11 -2 -10 16 2 27 19 65 22 105 7z m174 0 c0 -5 -4 -10 -10
-10 -5 0 -10 5 -10 10 0 6 5 10 10 10 6 0 10 -4 10 -10z m-1330 -4 c0 -9 -30
-14 -35 -6 -4 6 3 10 14 10 12 0 21 -2 21 -4z m-58 -61 c2 -32 -1 -55 -7 -55
-5 0 -10 25 -10 55 0 71 12 71 17 0z m-60 -10 c-5 -71 -17 -71 -17 0 0 30 5
55 10 55 6 0 9 -23 7 -55z m-56 15 c1 -16 -3 -27 -7 -24 -11 6 -12 54 -1 54 4
0 7 -13 8 -30z m409 0 c-3 -5 -12 -10 -18 -10 -7 0 -6 4 3 10 19 12 23 12 15
0z m1400 -39 c3 -5 1 -12 -5 -16 -5 -3 -10 1 -10 9 0 18 6 21 15 7z m-1515
-51 c0 -5 -2 -10 -4 -10 -3 0 -8 5 -11 10 -3 6 -1 10 4 10 6 0 11 -4 11 -10z
m765 -10 c3 -5 1 -10 -4 -10 -6 0 -11 5 -11 10 0 6 2 10 4 10 3 0 8 -4 11 -10z
m-1450 -9 c3 -5 1 -12 -5 -16 -5 -3 -10 1 -10 9 0 18 6 21 15 7z m751 -74 c4
-4 19 -7 33 -8 16 0 20 -3 11 -6 -8 -3 -35 -20 -60 -38 -45 -33 -110 -49 -120
-30 -3 6 18 13 49 17 61 7 79 19 56 38 -8 7 -15 18 -15 25 0 12 34 14 46 2z
m764 -27 c0 -5 -4 -10 -10 -10 -5 0 -10 5 -10 10 0 6 5 10 10 10 6 0 10 -4 10
-10z m517 -35 c0 -8 -4 -15 -9 -15 -4 0 -8 7 -8 15 0 8 4 15 8 15 5 0 9 -7 9
-15z m-1527 -45 c0 -5 -4 -10 -10 -10 -5 0 -10 5 -10 10 0 6 5 10 10 10 6 0
10 -4 10 -10z m1055 -10 c-3 -5 -12 -10 -18 -10 -7 0 -6 4 3 10 19 12 23 12
15 0z m-919 -17 c-10 -11 -37 -12 -30 -2 3 5 12 9 21 9 9 0 13 -3 9 -7z m1324
-33 c0 -5 -5 -10 -11 -10 -5 0 -7 5 -4 10 3 6 8 10 11 10 2 0 4 -4 4 -10z m40
-20 c0 -5 -4 -10 -10 -10 -5 0 -10 5 -10 10 0 6 5 10 10 10 6 0 10 -4 10 -10z
m-30 -20 c0 -5 -7 -10 -16 -10 -8 0 -12 5 -9 10 3 6 10 10 16 10 5 0 9 -4 9
-10z m-1520 -31 c0 -5 -4 -9 -10 -9 -5 0 -10 7 -10 16 0 8 5 12 10 9 6 -3 10
-10 10 -16z m1810 11 c0 -5 -4 -10 -10 -10 -5 0 -10 5 -10 10 0 6 5 10 10 10
6 0 10 -4 10 -10z m-593 -56 c-3 -3 -12 -4 -19 -1 -8 3 -5 6 6 6 11 1 17 -2
13 -5z m-1237 -44 c0 -5 -2 -10 -4 -10 -3 0 -8 5 -11 10 -3 6 -1 10 4 10 6 0
11 -4 11 -10z m1850 -40 c0 -5 -7 -10 -15 -10 -8 0 -15 5 -15 10 0 6 7 10 15
10 8 0 15 -4 15 -10z m-350 -40 c0 -5 -4 -10 -10 -10 -5 0 -10 5 -10 10 0 6 5
10 10 10 6 0 10 -4 10 -10z m-1955 -40 c3 -5 1 -10 -4 -10 -6 0 -11 5 -11 10
0 6 2 10 4 10 3 0 8 -4 11 -10z m2245 -5 c0 -8 -4 -15 -10 -15 -5 0 -10 7 -10
15 0 8 5 15 10 15 6 0 10 -7 10 -15z m-290 -10 c0 -8 -4 -15 -10 -15 -5 0 -10
7 -10 15 0 8 5 15 10 15 6 0 10 -7 10 -15z m352 -25 c1 -9 -1 -18 -6 -20 -5
-3 -10 7 -10 22 -2 28 9 26 16 -2z m-2097 -10 c3 -5 1 -10 -4 -10 -6 0 -11 5
-11 10 0 6 2 10 4 10 3 0 8 -4 11 -10z m1530 0 c3 -5 -1 -10 -9 -10 -9 0 -16
5 -16 10 0 6 4 10 9 10 6 0 13 -4 16 -10z m295 -21 c0 -14 -7 -19 -25 -19 -13
0 -29 -8 -34 -17 -10 -17 -10 -17 -11 -1 0 20 50 69 62 62 4 -3 8 -14 8 -25z
m-176 -10 c-6 -11 -24 -2 -24 11 0 5 7 7 15 4 8 -4 12 -10 9 -15z m-179 -27
c0 -18 -20 -15 -23 4 -3 10 1 15 10 12 7 -3 13 -10 13 -16z m68 -1 c-4 -18
-31 -36 -39 -28 -6 5 26 47 36 47 4 0 6 -9 3 -19z m-1273 -5 c0 -8 -7 -16 -15
-20 -13 -4 -14 -2 -5 14 13 23 20 26 20 6z m735 5 c3 -5 1 -12 -5 -16 -5 -3
-10 1 -10 9 0 18 6 21 15 7z m-895 -41 c0 -19 -11 -26 -23 -14 -8 8 3 34 14
34 5 0 9 -9 9 -20z m1355 0 c3 -5 -1 -10 -9 -10 -9 0 -16 5 -16 10 0 6 4 10 9
10 6 0 13 -4 16 -10z m-1508 -82 c-3 -8 -6 -5 -6 6 -1 11 2 17 5 13 3 -3 4
-12 1 -19z m-62 -33 c-1 -11 -3 -24 -4 -30 -2 -13 -31 25 -31 41 0 7 8 12 19
11 12 -1 17 -8 16 -22z m1215 -1235 c11 -7 4 -10 -25 -10 -29 0 -36 3 -25 10
8 5 20 10 25 10 6 0 17 -5 25 -10z m-1310 -45 c-7 -9 -15 -13 -17 -11 -7 7 7
26 19 26 6 0 6 -6 -2 -15z m1303 -12 c-7 -2 -19 -2 -25 0 -7 3 -2 5 12 5 14 0
19 -2 13 -5z m-40 -60 c-13 -2 -35 -2 -50 0 -16 2 -5 4 22 4 28 0 40 -2 28 -4z"/>
<path d="M1238 3036 c-15 -11 -18 -30 -18 -118 0 -103 13 -150 37 -135 11 7
25 214 16 246 -6 24 -11 25 -35 7z"/>
<path d="M1815 1640 c-3 -5 -1 -10 4 -10 6 0 11 5 11 10 0 6 -2 10 -4 10 -3 0
-8 -4 -11 -10z"/>
<path d="M1551 1543 c1 -42 2 -45 9 -18 4 17 9 36 11 44 2 7 -2 16 -8 18 -9 3
-13 -9 -12 -44z"/>
</g>
</svg>
