<?xml version="1.0" standalone="no"?>
<!DOCTYPE svg PUBLIC "-//W3C//DTD SVG 20010904//EN"
 "http://www.w3.org/TR/2001/REC-SVG-20010904/DTD/svg10.dtd">
<svg version="1.0" xmlns="http://www.w3.org/2000/svg"
 width="594.000000pt" height="850.000000pt" viewBox="0 0 594.000000 850.000000"
 preserveAspectRatio="xMidYMid meet">

<g transform="translate(0.000000,850.000000) scale(0.100000,-0.100000)"
fill="#000000" stroke="none">
<path d="M5 6295 c0 -1215 1 -1714 2 -1108 2 606 2 1600 0 2210 -1 609 -2 114
-2 -1102z"/>
<path d="M4261 8128 c-1 -27 34 -41 53 -22 9 8 16 21 16 27 0 8 -4 7 -12 -1
-16 -16 -45 -15 -51 1 -3 7 -6 5 -6 -5z"/>
<path d="M5170 7582 c0 -290 -4 -541 -9 -559 -7 -25 -6 -35 8 -47 10 -9 21
-13 26 -9 4 5 5 3 2 -4 -8 -14 2 -45 13 -38 4 2 15 -14 25 -36 31 -68 85 -89
125 -49 27 27 27 55 1 40 -28 -14 -29 -14 -52 23 -18 28 -20 29 -14 7 5 -20 4
-22 -4 -9 -25 39 -32 181 -30 624 0 327 -3 469 -11 490 -14 36 -57 95 -71 95
-5 0 -9 -201 -9 -528z m48 -64 c-1 -178 -4 -249 -8 -203 -14 130 -9 475 6 475
2 0 3 -123 2 -272z"/>
<path d="M4362 8093 c-28 -4 -31 -7 -21 -19 12 -15 -6 -47 -71 -124 l-29 -35
-1 66 c0 37 5 70 12 77 9 9 8 12 -7 11 -11 -1 -31 -4 -45 -8 -21 -6 -22 -8 -7
-14 14 -5 17 -20 17 -90 0 -51 -5 -88 -12 -95 -9 -9 -7 -12 13 -12 26 0 66 20
40 20 -19 0 -8 22 46 90 l48 60 3 -67 c2 -46 -1 -69 -10 -75 -9 -7 -5 -8 12
-4 14 3 34 6 45 7 11 0 14 3 8 6 -17 6 -18 184 -1 201 7 7 8 11 3 10 -6 0 -25
-3 -43 -5z"/>
<path d="M4829 8063 c-58 -64 -54 -22 -59 -637 -5 -565 -5 -571 -27 -612 -12
-23 -30 -44 -38 -48 -11 -4 -8 4 9 25 14 17 26 36 26 42 0 6 -8 0 -17 -13 -24
-35 -44 -49 -71 -50 -20 0 -21 -3 -12 -20 23 -43 116 -13 153 49 10 17 22 29
28 26 5 -3 6 0 3 8 -3 8 0 18 7 23 8 5 10 3 4 -7 -4 -8 8 1 26 19 29 28 32 34
19 43 -12 9 -11 9 5 4 102 -36 154 -25 195 40 17 28 19 58 23 320 2 159 0 304
-5 322 -12 44 -42 63 -103 63 -50 0 -86 -16 -112 -50 -10 -12 -12 36 -13 233
0 136 -4 247 -8 247 -5 0 -19 -12 -33 -27z m-2 -760 c-1 -87 -3 -16 -3 157 0
173 2 244 3 158 2 -87 2 -229 0 -315z m-20 10 c-1 -81 -3 -17 -3 142 0 160 2
226 3 148 2 -78 2 -208 0 -290z m99 290 c-6 -15 -5 -15 13 1 11 10 30 16 42
14 45 -6 49 -34 49 -328 0 -242 -2 -279 -18 -310 -18 -37 -38 -46 -78 -36 -46
12 -48 31 -45 336 2 241 5 289 19 313 18 30 28 36 18 10z m161 -385 c-1 -51
-3 -10 -3 92 0 102 2 143 3 93 2 -51 2 -135 0 -185z m-20 -10 c-1 -51 -3 -10
-3 92 0 102 2 143 3 93 2 -51 2 -135 0 -185z"/>
<path d="M4032 8023 c-5 -10 -20 -49 -32 -88 -13 -38 -29 -82 -37 -97 -13 -27
-12 -28 11 -28 18 0 23 4 19 18 -2 10 0 30 6 45 8 21 17 27 41 27 16 0 30 -5
30 -11 0 -5 4 -8 9 -4 6 3 6 -6 1 -25 -9 -33 -2 -36 50 -21 19 5 21 8 9 13 -8
3 -32 47 -53 97 -21 50 -39 91 -42 91 -2 0 -7 -8 -12 -17z m16 -59 c4 2 8 -7
8 -20 1 -13 -2 -24 -6 -24 -5 0 -15 -3 -23 -6 -14 -5 -14 0 -4 31 6 21 13 32
15 26 2 -6 7 -9 10 -7z"/>
<path d="M3808 8003 c-19 -3 -25 -9 -21 -19 5 -13 7 -13 14 -2 5 7 9 -28 9
-85 0 -55 -4 -96 -9 -93 -5 3 -12 -1 -15 -10 -5 -12 -2 -15 10 -10 8 3 25 6
37 7 12 0 16 3 10 6 -9 3 -13 33 -13 99 l0 95 33 -4 c17 -2 32 -9 31 -15 -1
-7 -2 -21 -2 -32 -1 -11 -11 -29 -22 -40 -11 -11 -15 -20 -10 -20 23 0 60 50
60 79 0 45 -29 57 -112 44z"/>
<path d="M3665 7960 c4 -14 -9 -38 -47 -87 l-53 -67 -3 63 c-2 41 2 68 10 79
11 14 10 15 -12 9 -14 -4 -34 -7 -45 -7 -16 0 -17 -2 -5 -9 8 -6 18 -7 22 -5
4 3 8 -38 8 -91 0 -62 -4 -94 -10 -90 -5 3 -10 1 -10 -4 0 -6 12 -11 26 -11
20 0 24 4 20 18 -4 13 11 40 46 85 l53 67 3 -67 c2 -46 -1 -69 -10 -74 -9 -6
-7 -8 7 -8 25 1 74 17 57 18 -10 1 -13 24 -10 101 l3 100 -28 0 c-24 0 -27 -3
-22 -20z m22 -152 c-3 -8 -6 -5 -6 6 -1 11 2 17 5 13 3 -3 4 -12 1 -19z"/>
<path d="M3418 7933 c-9 -2 -26 -30 -39 -61 -12 -31 -29 -70 -37 -86 l-14 -29
-31 74 c-16 41 -31 75 -32 77 -2 2 -14 0 -28 -3 -24 -6 -24 -8 -9 -24 10 -10
22 -15 27 -12 6 2 5 -2 -2 -10 -6 -8 -14 -41 -18 -74 -4 -33 -13 -69 -20 -81
-12 -19 -11 -20 16 -16 22 3 27 8 20 16 -15 18 -2 114 16 120 8 3 11 2 8 -3
-8 -14 27 -81 38 -74 6 4 8 0 4 -10 -3 -9 -2 -19 2 -22 8 -4 39 59 56 113 3
12 10 22 15 22 5 0 11 8 13 18 7 27 6 -26 -2 -90 l-7 -58 29 0 c23 0 27 4 23
18 -16 48 -25 176 -15 189 6 7 10 12 8 12 -2 -1 -11 -3 -21 -6z m-1 -190 c-3
-10 -5 -4 -5 12 0 17 2 24 5 18 2 -7 2 -21 0 -30z"/>
<path d="M2940 7778 c-18 -51 -40 -106 -47 -121 -13 -26 -13 -28 3 -25 10 2
22 19 28 42 9 30 18 42 41 49 21 7 30 7 33 -2 2 -6 7 -9 12 -6 4 3 6 -5 2 -17
-4 -15 -2 -19 7 -13 10 6 11 3 1 -15 -11 -20 -10 -22 5 -17 9 4 26 7 38 7 19
0 19 1 5 13 -9 6 -33 53 -53 102 -21 50 -38 91 -40 93 -1 1 -17 -39 -35 -90z
m46 -10 c1 -21 -3 -28 -17 -28 -20 0 -22 4 -13 36 8 30 29 25 30 -8z"/>
<path d="M2760 7820 c-10 -6 -11 -10 -2 -10 13 0 18 -80 5 -80 -5 -1 -28 -5
-51 -9 l-44 -9 4 49 c2 38 0 48 -10 44 -8 -3 -20 -5 -28 -5 -9 0 -12 -5 -9
-10 4 -6 11 -8 16 -5 5 4 9 -33 9 -90 0 -57 -4 -94 -9 -90 -5 3 -13 0 -16 -6
-5 -7 3 -9 21 -7 27 3 28 5 25 56 -1 28 1 52 6 52 4 1 27 5 51 9 l42 8 0 -41
c0 -23 -5 -47 -12 -54 -9 -9 -8 -12 8 -11 22 1 65 17 47 18 -18 1 -18 172 -1
189 9 9 7 12 -12 12 -14 0 -32 -5 -40 -10z"/>
<path d="M2506 7783 c-15 -4 -16 -7 -6 -13 15 -9 -7 -45 -70 -120 l-29 -35 -1
72 c0 39 3 73 8 76 4 2 1 2 -6 0 -8 -1 -26 -3 -40 -4 -15 0 -21 -3 -14 -6 6
-2 13 -21 13 -41 l2 -37 7 40 c5 29 7 13 8 -60 0 -64 -2 -93 -8 -80 -8 19 -9
19 -9 -2 -1 -12 -4 -23 -8 -26 -5 -2 -2 -2 5 0 8 1 26 3 40 4 15 0 21 3 15 6
-28 11 -8 46 90 158 5 6 7 -23 5 -68 -2 -63 0 -77 12 -77 19 0 51 20 33 20
-18 0 -18 171 -1 188 9 9 8 12 -7 11 -11 -1 -29 -4 -39 -6z"/>
<path d="M2240 7739 c-90 -17 -86 -14 -82 -62 5 -58 -14 -124 -44 -154 -13
-13 -24 -31 -24 -40 0 -15 1 -15 13 1 8 11 39 22 87 30 82 14 97 12 103 -12 3
-10 5 -5 6 11 1 18 -4 27 -14 27 -12 0 -15 17 -15 93 0 59 4 97 12 105 7 7 10
12 8 11 -3 -1 -25 -5 -50 -10z m-2 -111 l3 -87 -38 -10 c-63 -18 -71 -15 -53
18 5 10 14 49 20 87 11 69 22 86 50 81 12 -2 16 -21 18 -89z"/>
<path d="M4580 7695 c-28 -25 -57 -45 -65 -45 -9 0 -13 -13 -13 -42 0 -24 -8
-77 -18 -118 l-17 -75 -24 75 c-12 41 -23 89 -23 106 0 43 39 84 81 84 27 0
30 2 19 15 -25 30 -75 18 -131 -30 -29 -25 -59 -45 -66 -45 -8 0 -13 -13 -13
-38 0 -21 -27 -165 -60 -320 -33 -155 -60 -289 -60 -296 0 -21 36 -8 69 24 25
25 32 51 67 219 21 105 42 191 45 191 3 0 16 -44 28 -97 l23 -98 -22 -108
c-12 -60 -19 -111 -16 -114 8 -8 75 36 86 57 5 10 23 82 39 160 17 78 32 144
34 146 2 2 19 -56 37 -129 46 -183 60 -207 126 -207 23 0 25 3 20 23 -3 12
-26 99 -51 192 -24 94 -55 206 -68 251 -23 78 -23 82 -7 133 28 83 82 125 118
89 7 -7 12 -8 12 -2 0 20 -37 44 -68 44 -23 0 -45 -12 -82 -45z m-41 -215 c0
-9 -4 -8 -9 5 -5 11 -9 27 -9 35 0 9 4 8 9 -5 5 -11 9 -27 9 -35z m-191 -15
c-3 -3 -9 2 -12 12 -6 14 -5 15 5 6 7 -7 10 -15 7 -18z m181 -25 c1 -13 0 -13
-9 0 -5 8 -9 24 -9 35 l0 20 9 -20 c5 -11 9 -27 9 -35z m-189 -20 c0 -13 -1
-13 -10 0 -5 8 -10 22 -10 30 0 13 1 13 10 0 5 -8 10 -22 10 -30z m169 -71
c-8 -42 -15 -56 -21 -47 -6 8 -7 1 -3 -22 5 -28 4 -31 -5 -18 -8 14 -7 39 6
99 13 56 20 75 26 65 5 -10 4 -41 -3 -77z m-200 -66 c-16 -72 -25 -100 -30
-87 -4 11 -8 26 -8 34 -1 13 0 13 10 0 8 -12 9 -9 5 12 -8 35 4 89 17 81 6 -3
7 -1 3 6 -4 6 -4 30 -1 53 6 33 9 38 17 24 6 -11 2 -50 -13 -123z m170 -73 c0
-9 -4 -8 -9 5 -5 11 -9 27 -9 35 0 9 4 8 9 -5 5 -11 9 -27 9 -35z m-200 -65
c0 -5 -4 -3 -9 5 -5 8 -9 22 -9 30 0 16 17 -16 18 -35z"/>
<path d="M2020 7700 c-14 -4 -38 -8 -55 -9 l-30 -1 3 -101 c3 -77 1 -104 -10
-111 -9 -6 -3 -8 17 -4 17 3 47 8 68 12 20 3 37 10 37 14 0 5 3 17 6 27 5 14
3 14 -9 -3 -37 -48 -81 -32 -75 28 3 30 6 33 36 33 25 0 32 4 32 19 0 16 -3
17 -12 8 -7 -7 -22 -12 -35 -12 -20 0 -23 5 -23 40 0 37 2 40 28 40 15 0 33
-5 40 -12 9 -9 12 -6 12 15 0 15 -1 27 -2 26 -2 -1 -14 -5 -28 -9z"/>
<path d="M1775 7578 l-38 -91 -31 76 c-26 65 -35 77 -54 77 -15 0 -22 -5 -19
-12 2 -7 10 -13 17 -13 7 0 15 -7 17 -15 4 -12 3 -12 -5 -2 -6 10 -11 -8 -16
-55 -4 -38 -13 -81 -21 -96 -14 -27 -10 -32 19 -21 9 3 13 10 10 15 -11 18 7
116 22 116 7 0 11 -4 8 -8 -7 -13 28 -79 39 -72 6 4 8 0 4 -10 -3 -10 -2 -17
2 -17 5 0 22 32 37 71 21 53 30 66 35 53 6 -18 7 -18 11 1 9 34 8 -36 -1 -83
-7 -36 -6 -42 6 -38 8 3 24 6 36 6 16 0 18 3 9 9 -14 9 -37 153 -29 183 3 10
0 18 -8 18 -6 0 -29 -41 -50 -92z m52 -100 c-3 -8 -6 -5 -6 6 -1 11 2 17 5 13
3 -3 4 -12 1 -19z"/>
<path d="M3716 7650 c-51 -33 -58 -59 -57 -203 l2 -130 -61 7 c-34 4 -67 9
-74 12 -9 3 -15 35 -18 95 -5 83 -1 111 23 177 13 34 -17 28 -57 -12 -37 -37
-37 -39 -38 -170 l-1 -89 -40 -14 c-22 -7 -49 -24 -60 -36 -11 -13 -15 -16
-10 -7 9 13 8 13 -8 1 -9 -8 -16 -16 -13 -18 2 -3 -6 -20 -20 -40 -13 -19 -26
-51 -30 -70 -7 -40 9 -105 31 -123 8 -7 12 -17 8 -24 -3 -6 -3 -8 2 -4 4 4 13
1 19 -7 6 -7 36 -20 66 -28 l55 -13 -3 -80 c-4 -96 -18 -157 -34 -148 -7 5 -9
2 -5 -9 3 -9 3 -16 -1 -15 -4 1 -19 -2 -35 -7 -22 -6 -25 -10 -16 -21 27 -33
80 -10 110 48 22 44 23 44 70 101 29 35 30 39 15 50 -10 7 -20 31 -23 54 -5
40 -4 42 28 56 19 8 45 27 59 42 l25 28 -46 -27 c-25 -14 -51 -26 -57 -26 -9
0 -12 42 -12 146 l0 147 31 -7 c17 -3 52 -6 77 -6 l45 0 -6 -227 c-3 -126 -11
-245 -17 -265 -11 -39 -34 -58 -70 -58 -18 0 -19 -3 -10 -20 24 -45 82 -15
121 63 12 23 27 45 33 49 6 4 7 8 3 8 -4 0 8 14 27 30 l34 31 -24 24 c-24 24
-24 27 -24 198 0 143 3 177 15 187 8 7 15 20 14 29 0 10 -2 11 -6 4 -15 -38
-23 0 -23 105 0 108 5 151 24 210 9 27 0 28 -38 2z m-16 -393 c0 -107 -5 -199
-10 -207 -6 -10 -10 57 -10 198 0 140 3 211 10 207 6 -4 10 -81 10 -198z
m-218 53 c3 14 6 -33 7 -103 0 -78 -3 -126 -8 -122 -6 3 -12 -17 -14 -47 -2
-29 -3 37 -4 147 0 110 3 178 6 150 5 -39 8 -44 13 -25z m-44 -177 l-3 -148
-25 3 c-115 16 -165 126 -97 216 23 29 96 76 120 76 4 0 6 -66 5 -147z"/>
<path d="M4007 7643 c-2 -5 0 -37 3 -73 l7 -65 2 60 c1 43 4 56 11 45 6 -9 10
-129 10 -289 l0 -274 -26 -34 c-38 -50 -65 -43 -81 21 -16 66 -27 72 -18 11 4
-27 4 -47 0 -43 -5 5 -8 143 -7 308 1 206 -2 300 -9 300 -6 0 -26 -15 -45 -34
l-34 -34 0 -287 0 -287 29 -29 c16 -16 39 -29 51 -29 27 0 89 26 112 47 15 14
18 14 18 1 0 -17 44 -61 52 -52 4 3 12 -4 18 -16 15 -28 73 -52 105 -44 14 3
34 18 45 32 21 26 19 45 -2 24 -17 -17 -48 -15 -70 5 -18 16 -19 16 -13 -3 4
-10 -2 -5 -12 11 -16 27 -19 64 -23 355 -3 179 -9 331 -14 339 -16 26 -100 51
-109 34z m83 -310 c0 -71 -5 -135 -10 -143 -7 -10 -10 32 -10 128 0 88 4 142
10 142 6 0 10 -49 10 -127z m-222 -50 c-1 -93 -3 -141 -5 -108 -2 33 -8 64
-14 70 -12 12 -12 55 1 55 6 0 10 32 10 75 0 41 2 75 5 75 3 0 4 -75 3 -167z"/>
<path d="M925 7564 c-33 -13 -77 -41 -98 -62 -66 -65 -67 -72 -67 -642 0 -559
2 -579 60 -635 30 -29 35 -30 123 -30 82 0 98 3 152 30 96 48 98 55 107 273 9
204 23 274 64 319 l25 28 -19 -30 c-11 -16 -23 -41 -26 -55 -6 -25 -6 -25 7 2
17 35 47 68 64 68 10 0 13 -26 13 -121 0 -120 0 -121 29 -150 18 -17 40 -29
56 -29 29 0 99 33 111 52 5 8 9 8 13 -4 8 -21 115 -106 143 -113 28 -6 66 12
85 42 14 21 14 22 -15 11 -17 -7 -37 -8 -48 -3 -10 4 -22 7 -27 7 -24 -6 -31
68 -34 363 -2 171 -6 320 -9 333 -5 24 -55 52 -94 52 -17 0 -20 -6 -19 -42 0
-24 4 -65 9 -93 8 -47 8 -45 7 27 -1 42 1 74 6 71 4 -2 7 -132 7 -288 l0 -285
-28 -32 c-47 -52 -80 -20 -84 80 -1 43 -2 41 -8 -18 -4 -36 -7 71 -8 238 -1
190 -6 302 -12 302 -5 0 -24 -13 -42 -29 l-33 -29 -3 -139 -3 -139 -35 0 c-49
0 -93 -48 -151 -164 -27 -52 -53 -94 -58 -93 -6 1 -29 -13 -50 -32 l-40 -33
27 -11 c15 -5 32 -20 39 -33 17 -32 29 -171 18 -211 -19 -68 -101 -113 -144
-77 -40 34 -54 228 -54 774 0 423 4 469 37 490 6 3 4 -6 -3 -22 -8 -15 -17
-55 -19 -87 -6 -64 -2 -56 26 49 19 75 95 124 147 95 26 -15 26 -16 29 -159 4
-182 -11 -325 -39 -385 -23 -49 -37 -56 -19 -11 5 15 10 35 10 44 -1 9 -7 -1
-15 -23 -17 -47 -42 -68 -72 -60 -27 6 -30 -10 -7 -43 11 -16 25 -22 51 -22
51 0 100 54 143 159 19 46 49 99 68 119 l33 37 -26 -42 c-38 -64 -30 -62 20 5
l45 60 -28 29 c-26 26 -30 37 -36 123 -13 169 -55 220 -176 220 -46 -1 -83 -8
-125 -26z m-87 -706 c-1 -178 -4 -296 -7 -263 l-7 60 -11 -45 c-9 -36 -11 15
-10 255 0 165 2 282 4 260 7 -65 23 -66 23 -2 0 31 2 57 5 57 3 0 4 -145 3
-322z m749 -40 c-1 -46 -3 -9 -3 82 0 91 2 128 3 83 2 -46 2 -120 0 -165z m20
20 c-1 -40 -3 -8 -3 72 0 80 2 112 3 73 2 -40 2 -106 0 -145z m-229 32 c0 -47
-3 -105 -7 -130 -6 -31 -9 4 -9 115 0 93 4 147 8 130 4 -16 8 -68 8 -115z"/>
<path d="M3018 7490 c-44 -13 -89 -51 -104 -86 -11 -25 -14 -92 -14 -281 0
-261 7 -312 43 -338 51 -36 215 -5 246 46 23 38 33 230 24 459 -6 153 -8 166
-29 187 -19 19 -33 23 -81 22 -32 0 -70 -4 -85 -9z m97 -54 c8 -33 9 -74 7
-337 -2 -224 -4 -249 -21 -270 -18 -22 -19 -22 -45 -6 -14 10 -29 29 -32 44
-7 25 -8 26 -15 8 -5 -11 -7 109 -6 267 1 209 5 290 14 299 10 10 11 4 8 -27
-5 -39 -5 -39 5 -7 19 58 74 77 85 29z m62 -373 c-1 -54 -3 -12 -3 92 0 105 2
149 3 98 2 -51 2 -136 0 -190z m-20 -10 c-1 -54 -3 -12 -3 92 0 105 2 149 3
98 2 -51 2 -136 0 -190z m-200 -25 c-1 -51 -3 -12 -3 87 0 99 2 141 3 93 2
-48 2 -129 0 -180z m-20 -10 c-1 -51 -3 -12 -3 87 0 99 2 141 3 93 2 -48 2
-129 0 -180z"/>
<path d="M2146 7409 c-48 -38 -56 -67 -56 -204 0 -89 -3 -125 -12 -125 -6 0
-40 5 -75 11 l-63 11 0 87 c0 48 6 111 14 141 8 30 12 57 10 59 -9 9 -54 -20
-71 -46 -14 -20 -19 -54 -23 -137 l-5 -110 -33 -10 c-19 -5 -48 -23 -65 -40
-17 -17 -27 -24 -22 -16 5 9 5 12 -1 7 -5 -5 -9 -12 -9 -15 -1 -4 -11 -27 -24
-51 -27 -52 -30 -121 -6 -157 9 -13 13 -30 9 -37 -4 -7 -4 -9 0 -5 4 3 16 -2
26 -12 10 -10 44 -24 75 -31 l58 -13 -7 -90 c-7 -104 -14 -138 -28 -130 -5 3
-8 -2 -6 -11 3 -17 -11 -24 -50 -27 -27 -3 -6 -33 24 -36 35 -3 55 16 113 113
19 31 43 62 54 70 20 14 20 14 -1 32 -11 10 -24 34 -27 53 -6 33 -4 36 39 59
25 13 53 35 62 49 l16 25 -33 -26 c-19 -14 -46 -29 -61 -32 l-28 -7 0 147 0
148 38 -7 c20 -3 54 -6 76 -6 l38 0 -4 -237 c-5 -228 -15 -312 -38 -298 -5 3
-11 1 -15 -5 -3 -5 -15 -10 -26 -10 -24 0 -21 -18 4 -34 27 -17 68 13 101 74
16 30 45 70 64 89 29 29 32 35 18 43 -26 15 -36 77 -36 234 0 138 2 152 20
169 11 10 20 25 20 34 -1 14 -2 13 -11 -1 -22 -39 -29 -14 -29 105 0 81 5 136
15 162 25 70 18 81 -29 44z m-8 -421 c-1 -203 -1 -203 -11 -96 -8 94 -2 298 9
298 2 0 3 -91 2 -202z m-230 -48 c0 -85 -4 -168 -8 -185 -4 -17 -8 60 -8 175
0 123 3 197 8 185 5 -11 8 -90 8 -175z m-38 -45 c0 -139 -1 -145 -20 -145 -34
0 -85 26 -108 55 -39 49 -26 131 30 182 23 22 76 53 91 53 4 0 7 -65 7 -145z"/>
<path d="M2692 7399 c-18 -4 -44 -17 -57 -29 -19 -18 -27 -20 -43 -11 -12 6
-43 11 -71 11 -39 0 -56 -6 -80 -26 -21 -17 -31 -21 -31 -12 0 21 -53 68 -77
68 -21 0 -21 -1 -16 -292 7 -363 -5 -463 -57 -477 -8 -2 -28 -6 -43 -9 -40 -7
-27 -26 20 -30 38 -3 45 1 117 69 62 59 73 75 64 87 -9 10 -11 86 -9 280 1
146 5 270 7 274 3 5 9 6 13 3 5 -2 16 4 26 15 24 26 61 26 75 -1 8 -14 11
-109 8 -305 -3 -283 -3 -284 18 -284 22 0 55 30 63 58 3 9 6 136 8 282 2 260
5 300 25 300 5 0 6 -5 2 -12 -4 -7 -3 -8 5 -4 6 4 9 11 7 15 -8 13 53 0 64
-14 7 -9 10 -107 8 -304 -3 -267 -2 -291 14 -291 9 0 30 11 46 25 l30 25 2
273 c1 214 -2 276 -13 291 -16 22 -79 35 -125 25z m-237 -69 c-10 -11 -20 -18
-23 -15 -7 6 18 35 31 35 5 0 2 -9 -8 -20z m334 -247 c-1 -90 -4 -136 -9 -118
-13 53 -8 265 6 265 2 0 3 -66 3 -147z m-212 -120 c-1 -43 -3 -10 -3 72 0 83
2 118 3 78 2 -40 2 -107 0 -150z m20 25 c-2 -29 -3 -6 -3 52 0 58 1 81 3 53 2
-29 2 -77 0 -105z m-250 -75 c-1 -43 -3 -10 -3 72 0 83 2 118 3 78 2 -40 2
-107 0 -150z m20 20 c-2 -32 -3 -6 -3 57 0 63 1 89 3 58 2 -32 2 -84 0 -115z"/>
<path d="M1086 6665 c-9 -26 -7 -32 5 -12 6 10 9 21 6 23 -2 3 -7 -2 -11 -11z"/>
<path d="M4495 6661 c-33 -5 -36 -7 -17 -13 21 -6 22 -10 22 -141 0 -108 -3
-139 -15 -151 -14 -14 -10 -15 37 -10 81 8 136 31 153 64 21 41 19 86 -6 111
-18 18 -29 21 -75 16 l-54 -6 0 44 c0 24 4 55 10 69 10 28 13 28 -55 17z m22
-228 c-1 -43 -3 -10 -3 72 0 83 2 118 3 78 2 -40 2 -107 0 -150z m125 80 c28
-25 24 -88 -8 -118 -63 -58 -94 -38 -94 61 0 61 1 63 28 67 51 8 55 7 74 -10z"/>
<path d="M4643 6455 c0 -22 2 -30 4 -17 2 12 2 30 0 40 -3 9 -5 -1 -4 -23z"/>
<path d="M4428 6655 c-8 -8 -150 -35 -203 -38 -47 -3 -50 -4 -56 -37 -7 -34
-7 -34 10 -11 11 14 32 24 59 28 l42 6 0 -141 c0 -124 -2 -142 -17 -152 -15
-8 -13 -9 10 -5 71 13 81 17 69 24 -9 6 -12 45 -10 147 l3 139 48 3 c33 2 47
-1 48 -10 1 -15 17 21 18 40 1 12 -11 16 -21 7z m-131 -262 c-1 -43 -3 -10 -3
72 0 83 2 118 3 78 2 -40 2 -107 0 -150z"/>
<path d="M4090 6593 c-43 -5 -53 -14 -34 -31 8 -7 14 -8 14 -2 0 5 5 10 10 10
6 0 10 -53 10 -139 0 -83 -4 -142 -10 -146 -5 -3 -10 2 -11 12 0 16 -1 16 -8
-2 -11 -27 -9 -28 40 -20 33 6 39 9 26 17 -24 13 -25 268 -1 292 8 9 12 15 7
14 -4 0 -24 -3 -43 -5z"/>
<path d="M3850 6553 c-33 -4 -68 -23 -42 -23 19 0 17 -268 -3 -290 -14 -15 -9
-16 68 -4 70 12 86 18 110 44 19 22 27 41 27 69 0 53 -26 75 -90 73 l-50 -1 0
59 c0 46 4 61 18 69 9 6 13 10 7 9 -5 -1 -26 -3 -45 -5z m-13 -240 c-1 -43 -3
-8 -3 77 0 85 2 120 3 78 2 -43 2 -113 0 -155z m139 72 c35 -53 -17 -135 -86
-135 -18 0 -20 6 -20 80 l0 80 45 0 c37 0 47 -4 61 -25z"/>
<path d="M3956 6377 c3 -10 9 -15 12 -12 3 3 0 11 -7 18 -10 9 -11 8 -5 -6z"/>
<path d="M3705 6530 c-11 -4 -53 -13 -94 -20 -55 -9 -70 -15 -58 -22 26 -14
25 -263 0 -290 -17 -19 -16 -19 10 -14 15 3 39 9 54 12 18 3 23 8 15 13 -7 4
-16 39 -19 79 -6 70 -5 71 19 77 76 19 120 -22 98 -90 -7 -21 -16 -32 -22 -29
-6 4 -8 2 -5 -3 4 -6 -8 -18 -26 -27 -29 -14 -30 -16 -8 -16 13 0 37 14 57 34
26 26 34 42 34 70 0 55 -29 78 -93 75 l-52 -3 2 55 c2 37 8 58 20 67 24 17 60
15 72 -5 9 -17 10 -17 16 -1 11 29 2 46 -20 38z m-118 -257 c-1 -43 -3 -10 -3
72 0 83 2 118 3 78 2 -40 2 -107 0 -150z"/>
<path d="M3184 6441 c-41 -19 -103 -86 -90 -98 3 -3 6 -2 6 3 0 5 10 20 21 34
l21 25 -16 -27 c-46 -77 -38 -166 19 -224 40 -39 70 -43 130 -15 78 35 121
113 112 204 -4 42 -10 56 -41 84 -43 39 -96 44 -162 14z m90 -3 c-5 -8 -2 -9
10 -5 32 12 76 -61 76 -128 0 -32 -19 -89 -36 -110 -8 -11 -12 -13 -8 -5 4 8
-6 0 -23 -17 -98 -104 -213 58 -143 202 21 44 46 62 95 68 17 2 31 5 33 6 2 0
0 -4 -4 -11z"/>
<path d="M3306 6404 c10 -14 21 -42 25 -62 6 -35 7 -35 8 -7 1 27 -31 95 -44
95 -3 0 2 -12 11 -26z"/>
<path d="M3332 6265 c0 -16 2 -22 5 -12 2 9 2 23 0 30 -3 6 -5 -1 -5 -18z"/>
<path d="M2950 6401 c-27 -5 -31 -8 -17 -13 13 -6 17 -20 17 -67 0 -66 3 -64
-97 -77 l-53 -7 0 60 c0 33 5 65 13 72 10 11 9 13 -6 7 -10 -3 -33 -6 -50 -6
-24 0 -28 -3 -19 -12 17 -17 17 -279 0 -297 -11 -11 -7 -13 21 -7 18 3 43 6
55 6 19 1 19 2 4 11 -14 8 -18 24 -18 78 l0 69 63 11 c35 6 69 11 75 11 8 0
12 -23 12 -70 0 -55 -4 -71 -17 -80 -15 -10 -14 -11 7 -6 14 3 38 6 55 6 22 0
26 3 17 12 -8 8 -12 56 -12 148 0 92 4 140 12 148 13 13 -1 14 -62 3z m17
-228 c-1 -43 -3 -10 -3 72 0 83 2 118 3 78 2 -40 2 -107 0 -150z m-200 -30
c-1 -43 -3 -10 -3 72 0 83 2 118 3 78 2 -40 2 -107 0 -150z"/>
<path d="M3702 6338 c7 -15 15 -23 17 -17 2 6 -4 18 -13 27 -15 15 -15 15 -4
-10z"/>
<path d="M2530 6333 c-46 -7 -54 -13 -42 -25 19 -19 16 -267 -3 -288 -14 -15
-11 -16 42 -7 96 15 101 16 129 40 18 16 27 35 31 67 7 63 -18 86 -93 83 l-54
-3 0 48 c0 27 7 57 16 70 8 12 12 21 7 21 -4 -1 -19 -4 -33 -6z m-13 -230 c-1
-43 -3 -10 -3 72 0 83 2 118 3 78 2 -40 2 -107 0 -150z m107 70 c20 -17 20
-17 7 0 -7 9 -9 17 -4 17 19 0 33 -26 33 -63 0 -50 -46 -100 -87 -95 -27 3
-28 5 -31 67 -2 35 -1 70 2 77 8 20 56 17 80 -3z"/>
<path d="M2642 6120 c0 -19 2 -27 5 -17 2 9 2 25 0 35 -3 9 -5 1 -5 -18z"/>
<path d="M2280 6291 c-60 -12 -79 -19 -66 -24 17 -7 18 -15 12 -103 -3 -52
-14 -112 -22 -134 -15 -36 -19 -39 -52 -37 -33 2 -37 -1 -37 -23 0 -33 32 -38
67 -10 35 27 57 95 65 199 7 89 26 126 61 119 15 -3 17 -21 20 -135 2 -114 0
-133 -15 -149 -17 -17 -16 -17 16 -11 18 4 43 7 54 7 19 0 19 1 4 18 -14 15
-17 41 -17 141 0 67 5 131 10 142 13 23 16 23 -100 0z m67 -218 c-1 -43 -3
-10 -3 72 0 83 2 118 3 78 2 -40 2 -107 0 -150z"/>
<path d="M3073 6265 c0 -22 2 -30 4 -17 2 12 2 30 0 40 -3 9 -5 -1 -4 -23z"/>
<path d="M3711 6274 c0 -11 3 -14 6 -6 3 7 2 16 -1 19 -3 4 -6 -2 -5 -13z"/>
<path d="M1885 6226 c-43 -19 -92 -78 -106 -128 -22 -82 6 -147 76 -182 34
-17 44 -18 84 -7 25 7 60 23 77 36 87 67 99 225 22 279 -27 19 -111 20 -153 2z
m99 -5 c-2 -3 5 -14 16 -26 11 -11 24 -39 29 -60 8 -37 9 -37 10 -10 0 17 -8
46 -19 65 l-21 35 25 -27 c30 -33 42 -100 27 -148 l-11 -35 3 37 c4 48 -10 40
-15 -9 -3 -21 -8 -47 -12 -58 -5 -13 -2 -11 8 5 8 14 15 20 16 14 0 -5 -7 -19
-15 -30 -8 -10 -15 -15 -15 -11 0 5 -14 -3 -32 -18 -39 -33 -82 -28 -115 12
-56 69 -33 227 36 256 26 11 95 17 85 8z m-134 -35 c0 -2 -8 -10 -17 -17 -16
-13 -17 -12 -4 4 13 16 21 21 21 13z m-46 -81 c-20 -67 -2 -134 45 -173 14
-11 13 -11 -6 -2 -13 6 -32 29 -44 52 -22 43 -22 85 0 141 17 43 20 31 5 -18z"/>
<path d="M3080 6217 c0 -18 32 -67 49 -77 30 -16 38 -12 12 6 -12 9 -31 30
-42 48 -10 17 -19 27 -19 23z"/>
<path d="M1710 6201 c-8 -5 -53 -14 -100 -21 -64 -10 -79 -15 -62 -21 21 -8
22 -13 22 -143 0 -115 -3 -137 -17 -152 -17 -17 -17 -17 7 -11 14 4 40 7 58 7
l32 0 -20 20 c-28 28 -30 149 -2 151 9 1 29 3 45 5 15 1 25 -1 22 -6 -3 -5 0
-12 6 -16 8 -4 9 -3 5 4 -4 7 -3 12 2 12 13 0 22 -25 22 -60 0 -39 -10 -61
-24 -53 -6 3 -8 2 -3 -2 4 -5 -5 -17 -20 -27 -22 -14 -24 -18 -9 -18 10 0 33
15 52 34 41 41 47 93 13 127 -18 18 -29 21 -75 16 l-54 -6 1 37 c2 61 12 85
42 95 22 7 32 5 47 -8 18 -16 20 -16 26 -2 10 26 1 47 -16 38z m-123 -258 c-1
-43 -3 -10 -3 72 0 83 2 118 3 78 2 -40 2 -107 0 -150z"/>
<path d="M4015 6154 c-16 -8 -38 -23 -49 -32 -26 -24 -56 -87 -55 -114 1 -19
2 -17 8 7 8 31 29 75 36 75 2 0 -3 -16 -11 -35 -29 -69 -12 -154 38 -189 12
-9 18 -16 12 -16 -19 0 -66 58 -74 92 -7 29 -8 30 -9 7 -2 -42 39 -92 86 -107
159 -51 306 190 183 301 -25 22 -40 27 -83 27 -28 0 -65 -7 -82 -16z m129 -13
c28 -24 46 -67 46 -113 0 -51 -16 -115 -31 -124 -8 -4 -7 0 0 14 6 11 11 29
11 39 -1 10 -7 1 -14 -20 -17 -48 -30 -62 -66 -77 -82 -34 -151 75 -120 190
13 48 42 87 75 100 29 12 80 7 99 -9z"/>
<path d="M4120 6143 c18 -8 42 -65 51 -118 l8 -50 -4 59 c-4 59 -27 107 -53
112 -7 1 -8 0 -2 -3z"/>
<path d="M3880 6140 c-22 -12 -218 -43 -234 -37 -15 6 -26 -12 -26 -40 0 -15
2 -15 18 -1 9 9 34 18 55 22 l37 7 0 -139 c0 -97 -4 -142 -12 -151 -11 -11 -9
-13 12 -7 14 3 36 6 50 6 19 0 21 3 12 12 -8 8 -12 56 -12 149 l0 138 46 7
c34 5 48 3 55 -7 6 -11 9 -10 14 3 11 27 2 48 -15 38z m-133 -257 c-1 -43 -3
-10 -3 72 0 83 2 118 3 78 2 -40 2 -107 0 -150z"/>
<path d="M3562 6083 c-24 -3 -36 -11 -43 -30 -5 -13 -29 -51 -54 -83 -25 -32
-45 -62 -45 -67 0 -4 4 -2 8 5 6 8 23 -10 56 -58 57 -83 111 -125 178 -139 40
-9 55 -8 78 4 39 20 38 27 -1 13 -46 -16 -103 5 -161 60 -66 61 -121 138 -112
154 21 36 93 113 119 129 17 11 26 18 20 17 -5 0 -25 -3 -43 -5z"/>
<path d="M3390 6053 c-33 -4 -68 -23 -42 -23 9 0 12 -38 12 -141 0 -121 -2
-144 -17 -154 -13 -10 -5 -10 41 -2 41 8 53 13 42 19 -13 8 -16 33 -16 148 0
122 2 140 18 149 9 6 13 10 7 9 -5 -1 -26 -3 -45 -5z m-13 -240 c-1 -43 -3 -8
-3 77 0 85 2 120 3 78 2 -43 2 -113 0 -155z"/>
<path d="M1713 5965 c0 -22 2 -30 4 -17 2 12 2 30 0 40 -3 9 -5 -1 -4 -23z"/>
<path d="M3028 5993 c-10 -3 -35 -52 -68 -134 -29 -72 -56 -127 -60 -122 -5 4
-27 54 -50 111 l-42 102 -36 0 c-32 0 -34 -1 -20 -17 8 -10 18 -26 21 -36 11
-29 -22 -219 -43 -248 l-18 -26 26 4 c49 8 58 13 42 23 -12 7 -11 24 3 116 14
96 14 110 1 137 -9 16 -13 31 -10 34 3 3 16 -19 29 -48 14 -30 41 -89 61 -131
19 -43 31 -78 25 -78 -6 0 -7 -5 -4 -11 10 -15 13 -10 65 118 41 100 49 113
53 88 3 -22 5 -16 7 20 2 43 4 36 15 -50 7 -55 13 -113 13 -130 1 -25 -1 -27
-8 -10 -5 11 -9 15 -9 8 -1 -6 -9 -19 -18 -29 -17 -17 -17 -17 7 -11 14 4 36
7 49 7 18 0 22 4 16 18 -5 13 -34 227 -35 264 0 4 7 14 16 22 16 17 9 19 -28
9z"/>
<path d="M4427 5953 c-15 -14 -7 -43 12 -43 20 0 35 25 25 41 -6 11 -28 12
-37 2z m10 -25 c-3 -8 -6 -5 -6 6 -1 11 2 17 5 13 3 -3 4 -12 1 -19z"/>
<path d="M4353 5943 c-16 -6 -17 -39 -2 -49 6 -3 18 1 27 10 14 14 14 18 2 30
-8 7 -21 12 -27 9z m4 -35 c-3 -8 -6 -5 -6 6 -1 11 2 17 5 13 3 -3 4 -12 1
-19z"/>
<path d="M2640 5929 c-19 -5 -63 -11 -97 -13 -35 -3 -66 -7 -71 -10 -11 -7
-170 -35 -217 -38 -36 -3 -40 -6 -46 -38 l-7 -34 17 23 c11 14 34 26 59 31
l42 7 0 -135 c0 -106 -3 -139 -15 -152 -14 -15 -10 -16 47 -7 48 8 57 12 40
18 -21 8 -22 14 -22 147 l0 139 43 6 c31 5 45 2 53 -9 10 -12 13 -11 18 11 7
29 21 32 35 8 10 -17 10 -17 11 0 0 9 3 17 8 17 4 0 7 -65 8 -145 1 -80 -3
-145 -7 -145 -5 0 -9 5 -9 12 0 6 -6 3 -14 -8 -8 -10 -13 -20 -12 -21 4 -5
142 18 164 27 12 6 22 18 22 30 0 20 0 20 -19 1 -26 -26 -81 -37 -92 -20 -5 8
-9 39 -9 70 l0 56 38 7 c28 4 40 2 50 -11 10 -15 12 -12 12 19 l0 37 -27 -15
c-16 -7 -38 -14 -50 -14 -21 0 -23 4 -23 60 l0 59 37 7 c31 6 39 3 55 -16 l18
-22 0 36 c0 20 -1 36 -2 35 -2 -1 -19 -5 -38 -10z m-303 -276 c-1 -43 -3 -10
-3 72 0 83 2 118 3 78 2 -40 2 -107 0 -150z"/>
<path d="M4256 5913 c-4 -9 -2 -21 3 -26 15 -15 41 0 41 23 0 25 -35 28 -44 3z
m20 -20 c-10 -10 -19 5 -10 18 6 11 8 11 12 0 2 -7 1 -15 -2 -18z"/>
<path d="M3451 5860 c42 -64 91 -119 126 -141 19 -12 36 -19 39 -16 3 3 -3 8
-14 11 -19 6 -104 92 -150 151 l-23 30 22 -35z"/>
<path d="M1939 5807 c-113 -60 -144 -209 -58 -281 22 -19 40 -24 86 -25 46 0
123 13 123 22 0 1 4 17 10 36 l9 34 -33 -39 c-29 -33 -39 -39 -75 -39 -140 0
-153 256 -15 294 40 11 80 0 100 -27 12 -16 13 -16 14 0 0 39 -11 48 -64 48
-36 0 -67 -7 -97 -23z m-75 -104 c-7 -21 -13 -46 -14 -55 0 -37 34 -101 64
-119 17 -10 25 -19 18 -19 -22 0 -62 32 -78 61 -18 36 -18 90 0 134 20 47 27
45 10 -2z"/>
<path d="M2811 5825 c0 -5 15 -39 34 -75 19 -36 34 -60 34 -55 0 6 -15 39 -34
75 -19 36 -34 61 -34 55z"/>
<path d="M3013 5795 c0 -22 2 -30 4 -17 2 12 2 30 0 40 -3 9 -5 -1 -4 -23z"/>
<path d="M3135 5740 c-4 -6 -4 -24 0 -40 4 -16 1 -39 -6 -52 -11 -20 -11 -22
3 -10 23 18 51 81 44 98 -6 16 -32 19 -41 4z m12 -22 c-3 -8 -6 -5 -6 6 -1 11
2 17 5 13 3 -3 4 -12 1 -19z"/>
<path d="M3648 5693 c6 -2 18 -2 25 0 6 3 1 5 -13 5 -14 0 -19 -2 -12 -5z"/>
<path d="M4583 5344 c-125 -11 -173 -20 -262 -50 -60 -19 -118 -44 -129 -54
-11 -10 -23 -16 -26 -13 -3 4 -6 1 -6 -6 0 -7 -4 -9 -10 -6 -5 3 -10 2 -10 -3
0 -5 -37 -26 -81 -46 -45 -21 -86 -42 -93 -47 -6 -5 -31 -23 -55 -41 -33 -24
-55 -53 -82 -108 -46 -92 -49 -109 -8 -46 29 43 143 146 161 146 5 0 -9 -17
-31 -39 -76 -76 -144 -192 -184 -316 -31 -93 -60 -322 -51 -405 5 -51 9 -67
13 -51 6 22 8 20 20 -20 13 -44 13 -56 -2 -51 -5 1 3 -13 17 -31 20 -26 26
-46 27 -88 1 -58 3 -57 15 6 l7 40 8 -40 c4 -22 9 -101 10 -175 2 -74 4 -106
6 -70 1 36 7 102 14 148 10 71 14 82 28 76 15 -6 51 -14 78 -16 7 -1 17 -14
24 -30 10 -25 8 -36 -16 -84 -28 -55 -28 -58 -17 -131 9 -53 20 -84 39 -110
38 -49 41 -24 4 31 l-30 44 37 25 c31 20 44 42 80 126 57 137 55 218 -10 330
-12 22 -20 42 -17 45 5 6 12 7 173 31 64 9 121 25 162 44 35 17 64 27 64 22 0
-9 -94 -54 -170 -81 -51 -18 -52 -19 -15 -14 60 9 189 73 290 146 l89 65 32
-22 c58 -39 61 -45 67 -145 6 -102 18 -154 42 -185 15 -20 15 -20 8 0 -6 19
-6 19 14 2 11 -9 23 -14 28 -10 4 5 6 1 3 -7 -3 -8 3 -26 12 -40 20 -28 41
-96 33 -104 -3 -3 -1 -32 6 -64 9 -49 9 -70 -4 -118 -27 -106 -23 -106 83 -1
126 123 214 164 297 137 43 -14 74 -63 54 -86 -11 -13 -14 -13 -22 2 -6 11 -6
19 2 23 16 10 -16 37 -54 45 -41 8 -140 -39 -183 -88 l-32 -37 20 -21 c16 -17
23 -19 32 -10 7 7 31 12 55 12 59 0 47 -25 -22 -45 -55 -16 -165 -103 -165
-131 0 -20 17 -26 40 -14 16 9 25 8 36 0 23 -20 89 14 155 80 58 58 65 73 60
134 -2 20 1 27 11 24 20 -8 13 -87 -12 -120 -24 -32 -25 -38 -7 -38 17 0 51
36 71 75 20 38 21 9 1 -38 -8 -19 -30 -45 -49 -56 -51 -32 -71 -61 -21 -31 80
47 95 70 110 168 4 23 10 42 15 42 10 0 154 180 156 194 4 38 6 41 14 21 7
-15 9 -10 10 25 1 33 3 40 9 25 7 -16 9 -12 13 20 3 22 16 100 29 172 26 148
29 110 -30 375 -22 94 -46 152 -61 143 -6 -3 -7 1 -4 9 4 10 -11 32 -41 61
-45 43 -46 47 -36 77 6 17 10 56 9 87 l-1 56 -7 -60 c-4 -33 -7 -50 -8 -39 -7
87 -113 204 -246 271 -163 82 -312 102 -583 77z m-782 -585 c-11 -24 -20 -41
-20 -37 -1 12 31 89 35 85 3 -2 -4 -24 -15 -48z m-31 -86 c-11 -17 -11 -17 -6
0 3 10 6 24 7 30 0 9 2 9 5 0 3 -7 0 -20 -6 -30z m231 -631 c-7 -2 -18 1 -23
6 -8 8 -4 9 13 5 13 -4 18 -8 10 -11z m1214 -173 c4 -5 -6 -9 -21 -9 -15 0
-36 -7 -46 -17 -10 -9 -18 -11 -18 -5 0 26 72 53 85 31z m35 -19 c0 -5 -2 -10
-4 -10 -3 0 -8 5 -11 10 -3 6 -1 10 4 10 6 0 11 -4 11 -10z m-70 -125 c0 -15
-38 -55 -52 -55 -16 0 -8 30 14 50 26 24 38 26 38 5z"/>
<path d="M1982 5050 c-7 -11 -8 -20 -3 -20 9 0 24 30 18 36 -1 2 -8 -6 -15
-16z"/>
<path d="M2060 5026 c60 -17 149 -28 130 -17 -18 11 -125 31 -154 30 -12 0 -1
-6 24 -13z"/>
<path d="M1384 4998 l-29 -33 33 29 c30 28 37 36 29 36 -2 0 -16 -15 -33 -32z"/>
<path d="M1381 4954 c-23 -26 -41 -40 -41 -32 0 8 6 20 13 28 10 12 9 12 -5 1
-14 -10 -18 -9 -27 6 -8 14 -9 10 -5 -17 3 -19 1 -51 -4 -70 -7 -25 -10 -29
-11 -13 -1 25 -41 136 -47 131 -2 -2 3 -26 11 -53 18 -60 19 -81 2 -97 -11
-10 -11 -17 2 -39 18 -31 16 -35 -21 -44 -34 -9 -68 23 -68 64 0 17 -5 33 -11
37 -12 7 -9 -46 5 -78 6 -14 -1 -19 -36 -28 -62 -15 -90 -29 -84 -39 4 -5 3
-11 -1 -13 -5 -2 -21 -18 -38 -37 -31 -36 -22 -34 32 7 50 37 102 40 168 8 30
-15 54 -30 53 -34 -2 -4 12 -21 30 -39 35 -34 40 -59 18 -88 -11 -15 -11 -22
0 -44 17 -32 19 -85 3 -75 -6 3 -32 8 -57 9 l-46 3 32 -13 c39 -17 40 -34 6
-66 -33 -31 -84 -130 -85 -166 0 -15 -3 -22 -6 -15 -3 9 -9 10 -17 3 -9 -8
-13 -7 -14 2 0 6 -4 35 -9 62 -7 45 -11 51 -41 60 -17 5 -32 16 -32 23 0 12
-3 12 -16 1 -15 -12 -16 -11 -9 9 6 22 5 23 -17 11 -12 -6 -38 -25 -56 -40
-33 -29 -65 -36 -91 -20 -11 7 3 18 55 42 38 18 71 37 73 43 2 5 15 20 27 33
28 28 31 38 9 29 -28 -10 3 33 38 54 18 11 27 20 21 20 -24 0 -81 -25 -118
-51 -22 -16 -41 -27 -44 -25 -6 7 18 49 47 80 14 16 20 26 14 22 -28 -16 -10
14 31 52 39 36 51 41 110 47 52 6 77 4 108 -9 49 -19 60 -13 31 16 -40 39
-182 34 -250 -10 -13 -8 -23 -11 -23 -8 0 16 -37 -15 -54 -46 -17 -28 -17 -31
-3 -19 23 19 21 7 -10 -57 -14 -30 -34 -82 -42 -116 -15 -56 -20 -62 -51 -72
l-35 -12 58 -28 c61 -30 64 -39 31 -91 -8 -13 -10 -23 -5 -23 5 0 11 -31 13
-70 3 -51 9 -77 26 -99 12 -17 22 -37 22 -46 0 -10 5 -13 12 -9 8 5 9 0 6 -14
-4 -12 -3 -20 2 -17 10 6 22 -23 15 -35 -3 -5 -1 -11 4 -15 6 -3 4 -20 -5 -41
-9 -20 -14 -56 -12 -82 l4 -47 8 63 c5 34 13 65 18 68 16 10 60 -39 85 -96 14
-30 33 -66 42 -80 23 -32 36 -117 16 -100 -8 6 -17 26 -21 43 -4 18 -17 48
-30 67 -13 19 -24 38 -24 43 0 9 -52 56 -63 57 -10 0 19 -44 55 -82 15 -16 28
-37 28 -44 0 -21 -28 -28 -48 -13 -10 8 -8 5 4 -6 11 -11 30 -25 40 -32 16
-10 13 -11 -21 -7 l-40 5 70 -66 c38 -36 82 -71 97 -78 15 -6 28 -16 28 -22 1
-5 12 -32 26 -60 14 -27 23 -43 20 -34 -2 9 -14 50 -26 90 -12 41 -32 122 -45
180 l-22 106 38 -19 c52 -25 59 -23 26 8 -16 14 -32 36 -37 49 -14 36 -23 140
-16 178 9 49 74 140 125 178 43 31 46 24 8 -18 -25 -28 -5 -31 22 -4 38 38 54
84 59 167 l4 82 38 11 c20 6 57 11 80 11 35 0 48 -6 74 -33 40 -43 103 -150
119 -202 l12 -40 3 53 3 52 46 -31 c53 -37 120 -56 223 -65 61 -5 94 -15 175
-54 55 -26 111 -60 125 -75 23 -26 21 -25 -27 7 -52 36 -53 36 -140 31 -48 -2
-106 -9 -128 -14 -42 -11 -85 -35 -85 -47 0 -4 64 -5 142 -3 77 1 170 0 205
-4 57 -6 64 -9 71 -33 16 -58 6 -225 -20 -337 -14 -60 -28 -128 -31 -150 l-6
-40 10 35 c16 54 38 98 38 78 1 -10 5 -18 11 -18 6 0 5 9 -1 24 -10 20 -6 35
23 92 20 38 40 82 47 98 16 38 26 26 12 -15 -15 -45 -8 -46 15 -3 22 43 38 48
42 15 4 -27 -54 -95 -74 -87 -7 3 -15 -2 -18 -10 -10 -26 -7 -32 14 -27 11 3
20 8 20 12 0 3 13 20 29 36 45 49 54 72 42 107 -8 21 -8 35 -1 43 6 7 10 17 9
21 -1 5 -1 18 0 28 2 35 14 7 27 -61 l13 -68 -6 75 c-3 41 -9 82 -14 91 -9 17
6 87 22 104 14 14 11 78 -6 125 -8 23 -15 61 -15 84 0 23 -11 73 -24 112 -25
69 -35 63 -15 -9 14 -50 4 -59 -14 -15 -13 31 -59 78 -76 78 -4 0 -8 -11 -9
-24 -2 -30 25 -99 37 -92 9 6 40 -33 66 -84 18 -34 17 -34 -37 16 -59 53 -148
94 -206 94 -24 0 -30 4 -26 15 8 20 -30 20 -87 -1 -24 -8 -82 -20 -129 -25
-141 -16 -266 17 -322 85 -16 20 -18 20 -18 2 0 -10 10 -34 21 -53 12 -19 19
-36 16 -39 -4 -5 -34 41 -97 151 -14 24 -40 62 -58 84 -36 45 -35 50 6 24 l27
-17 -20 23 c-11 13 -35 30 -53 38 -31 13 -37 12 -68 -6 -19 -11 -34 -17 -34
-13 1 21 33 43 81 56 51 14 52 15 18 15 -20 1 -47 10 -60 20 -21 17 -22 21
-10 43 7 14 36 36 64 51 39 19 46 26 29 26 -13 1 -32 -4 -43 -10 -19 -10 -20
-9 -9 12 7 12 13 35 14 52 2 28 56 89 111 125 19 11 18 12 -5 6 -14 -3 -47
-21 -74 -39 -46 -31 -51 -32 -73 -18 -12 8 -23 20 -23 25 0 15 28 64 44 77 23
19 20 33 -4 19 -11 -7 -34 -39 -50 -70 -17 -32 -35 -58 -41 -58 -32 0 12 162
58 212 9 10 14 18 10 18 -3 0 -24 -21 -46 -46z m-461 -614 c0 -5 -10 -15 -22
-21 -23 -12 -23 -12 -4 10 21 23 26 26 26 11z m410 -25 c0 -14 -11 -48 -25
-75 -33 -64 -32 -80 3 -47 35 34 52 34 52 2 0 -39 -27 -83 -88 -147 -65 -69
-89 -77 -36 -13 41 51 41 66 0 34 -15 -12 -29 -20 -31 -17 -2 2 -1 48 2 103
l6 100 42 43 c49 48 75 54 75 17z m911 -176 c72 -24 104 -45 50 -34 l-33 7 41
-52 c23 -29 40 -54 38 -56 -1 -2 -48 18 -102 45 -55 27 -117 54 -138 61 l-39
12 26 13 c56 29 78 30 157 4z m-344 -65 c-3 -3 -12 -4 -19 -1 -8 3 -5 6 6 6
11 1 17 -2 13 -5z m103 -26 c10 -6 3 -7 -20 -2 -54 10 -83 25 -35 18 22 -4 47
-11 55 -16z m-871 -579 c2 -7 -10 -2 -27 10 -44 31 -53 50 -12 24 19 -12 36
-27 39 -34z m55 -14 l6 -30 -15 25 c-8 14 -14 32 -15 40 0 23 17 -2 24 -35z"/>
<path d="M1418 4963 c-29 -34 -30 -48 -2 -21 15 15 26 30 23 33 -3 3 -13 -3
-21 -12z"/>
<path d="M2432 4850 c7 -11 17 -20 22 -20 5 0 1 9 -9 20 -10 11 -20 20 -22 20
-2 0 2 -9 9 -20z"/>
<path d="M2615 4649 c-35 -16 -37 -19 -14 -19 25 0 69 24 59 33 -3 2 -23 -4
-45 -14z"/>
<path d="M2354 4584 c-21 -25 -41 -48 -44 -51 -3 -3 5 -3 18 0 29 7 77 -17
127 -63 22 -20 48 -40 58 -43 14 -6 16 -2 11 20 l-7 27 34 -21 c19 -11 52 -23
74 -27 l40 -6 -25 17 c-13 10 -39 31 -57 47 -21 18 -39 26 -50 22 -10 -4 -25
2 -39 15 l-22 21 11 -34 c7 -18 16 -40 21 -48 5 -8 -14 6 -42 33 -28 26 -60
47 -72 47 -21 0 -26 9 -12 26 14 16 32 64 24 64 -5 0 -26 -20 -48 -46z"/>
<path d="M2200 4411 c0 -6 4 -13 10 -16 6 -3 7 1 4 9 -7 18 -14 21 -14 7z"/>
<path d="M2560 4391 c0 -5 5 -13 10 -16 6 -3 10 -2 10 4 0 5 -4 13 -10 16 -5
3 -10 2 -10 -4z"/>
<path d="M2290 4332 c0 -4 -45 -16 -100 -26 -55 -10 -100 -22 -100 -27 0 -13
53 -11 102 5 24 7 62 19 86 26 41 13 57 30 27 30 -8 0 -15 -3 -15 -8z"/>
<path d="M2078 4251 c10 -6 4 -10 -20 -16 -32 -7 -32 -7 -8 -14 21 -6 113 19
129 35 2 2 -22 4 -55 4 -36 0 -54 -4 -46 -9z"/>
<path d="M2197 4243 c-15 -14 -5 -18 43 -15 27 2 47 8 44 13 -6 10 -77 12 -87
2z"/>
<path d="M3731 4214 c0 -11 3 -14 6 -6 3 7 2 16 -1 19 -3 4 -6 -2 -5 -13z"/>
<path d="M4295 4188 c-39 -14 -40 -15 -26 -32 7 -8 10 -24 6 -35 -8 -26 27
-61 61 -61 22 0 24 -3 15 -14 -10 -11 -8 -15 6 -18 15 -4 13 -7 -9 -18 -16 -7
-28 -17 -28 -22 0 -12 32 -9 60 7 39 22 80 19 80 -5 0 -12 7 -32 16 -45 13
-20 14 -25 3 -26 -24 -1 45 -28 74 -29 30 0 135 34 150 49 6 6 -3 17 -24 30
-35 21 -33 29 2 11 15 -9 21 -7 25 5 8 21 -17 48 -66 70 -22 10 -39 20 -37 21
6 6 157 -25 178 -37 22 -11 35 -7 25 9 -3 5 -29 25 -58 45 -57 39 -142 65
-297 91 -107 18 -115 18 -156 4z m232 -144 c-3 -3 -12 -4 -19 -1 -8 3 -5 6 6
6 11 1 17 -2 13 -5z m98 -94 c6 -10 -34 -30 -62 -30 -11 0 -9 5 8 20 27 22 45
25 54 10z"/>
<path d="M2550 4165 c7 -8 17 -15 22 -15 6 0 5 7 -2 15 -7 8 -17 15 -22 15 -6
0 -5 -7 2 -15z"/>
<path d="M1315 3951 c-42 -11 -66 -25 -95 -56 l-25 -28 29 7 c71 17 209 27
301 21 94 -6 99 -5 80 11 -11 9 -34 22 -51 30 -37 16 -197 26 -239 15z"/>
<path d="M1370 3854 c-87 -17 -134 -54 -128 -102 5 -34 73 -129 98 -137 31
-10 142 -7 170 4 20 8 21 10 6 10 -18 1 -18 2 -3 19 10 10 17 24 17 30 0 16
12 15 36 -3 29 -22 36 -18 19 9 -13 19 -13 25 -3 29 10 3 8 9 -6 26 -17 19
-17 21 -2 21 13 0 15 6 10 28 -12 47 -23 61 -62 72 -45 12 -58 12 -152 -6z m7
-161 c3 -10 15 -28 26 -40 11 -13 15 -23 9 -23 -24 0 -65 21 -82 43 -18 21
-18 22 3 29 34 10 37 9 44 -9z"/>
<path d="M2065 3843 c-89 -7 -103 -13 -119 -44 -11 -21 -13 -37 -6 -49 6 -11
5 -21 -2 -28 -9 -9 -9 -12 0 -12 10 0 10 -5 2 -21 -17 -30 -5 -34 28 -10 l30
21 6 -25 c8 -32 38 -47 84 -43 29 2 41 10 57 35 21 34 31 39 55 23 13 -9 10
-15 -18 -40 -29 -27 -39 -30 -105 -31 -39 -1 -58 -4 -42 -6 17 -2 46 -8 65
-14 47 -14 100 8 136 58 15 21 34 43 42 50 11 9 10 13 -7 23 -17 8 -19 15 -11
29 8 15 3 23 -29 45 -36 25 -95 48 -116 44 -5 -1 -28 -3 -50 -5z m49 -39 c25
-9 19 -24 -9 -24 -24 0 -32 10 -18 23 8 8 8 8 27 1z"/>
<path d="M4058 3683 c7 -3 16 -2 19 1 4 3 -2 6 -13 5 -11 0 -14 -3 -6 -6z"/>
<path d="M5124 3565 c-10 -8 -53 -26 -95 -40 -63 -21 -83 -24 -117 -17 -43 10
-78 -4 -129 -51 -36 -33 -27 -40 15 -12 22 14 46 23 55 20 8 -4 29 1 46 9 16
9 48 16 69 16 37 0 39 -2 51 -42 7 -24 24 -60 38 -80 14 -21 27 -50 29 -66 4
-34 -6 -40 -341 -203 -284 -139 -387 -182 -397 -165 -5 7 -8 5 -8 -5 0 -22
-31 -33 -42 -17 -12 17 -68 136 -68 144 0 4 9 -1 20 -11 18 -16 20 -16 20 -2
0 10 14 20 40 27 21 6 42 15 45 20 13 22 35 10 35 -19 0 -34 13 -47 28 -28 10
13 28 65 37 109 6 33 19 44 95 87 58 33 185 139 177 148 -2 2 -48 -17 -102
-42 -54 -25 -135 -57 -181 -70 -45 -14 -94 -35 -108 -46 -15 -12 -80 -34 -151
-52 -146 -36 -188 -31 -224 26 -11 17 -21 26 -21 20 0 -7 13 -27 28 -44 32
-36 90 -51 163 -42 41 5 48 3 59 -17 12 -22 49 -129 50 -142 0 -4 -38 -28 -85
-53 -47 -26 -117 -72 -156 -102 l-71 -56 5 -48 c8 -62 25 -97 39 -78 8 11 8
10 4 -4 -3 -10 -6 -28 -6 -39 0 -13 -5 -18 -14 -15 -10 4 -18 -5 -25 -25 -6
-17 -11 -33 -11 -34 0 -2 17 -4 39 -4 35 0 39 -3 45 -31 11 -59 7 -95 -15
-115 -18 -16 -20 -26 -15 -68 5 -43 1 -56 -28 -106 -19 -32 -83 -158 -143
-281 -105 -215 -165 -367 -307 -784 -149 -434 -169 -486 -182 -473 -7 7 -14
19 -16 27 -2 7 -15 27 -30 44 -15 17 -25 34 -22 38 8 13 -45 47 -66 42 -14 -4
-20 0 -20 11 0 9 -4 16 -9 16 -19 0 -33 60 -28 117 4 32 9 92 12 133 l7 75
-21 -25 c-11 -14 -21 -30 -21 -37 0 -18 -16 -24 -45 -17 -48 12 -35 39 142
311 76 117 143 244 143 273 -1 18 -12 3 -44 -55 -59 -111 -164 -281 -217 -350
-35 -46 -45 -54 -48 -39 -2 10 -1 91 2 179 5 169 7 179 78 334 17 36 19 49 10
69 -13 28 2 84 32 116 24 28 22 44 -19 106 -48 72 -128 155 -181 186 -24 14
-43 28 -43 32 0 4 13 24 30 44 l30 36 -30 37 c-17 21 -28 45 -25 54 2 9 1 22
-4 30 -7 11 -12 7 -24 -16 -9 -16 -23 -35 -31 -42 -14 -12 -16 -10 -16 13 0
36 -35 69 -95 91 -62 22 -85 47 -85 92 0 19 -5 55 -12 80 -9 38 -18 50 -55 72
-43 26 -43 27 -38 71 7 59 -3 74 -44 65 -31 -7 -40 -19 -21 -30 5 -3 10 -13
10 -21 0 -20 -40 -18 -97 7 -47 20 -173 48 -243 53 -27 2 -36 8 -38 25 -5 34
17 127 44 178 21 42 22 45 4 24 -12 -13 -24 -29 -28 -35 -10 -16 -154 -142
-238 -209 -92 -74 -158 -92 -226 -62 -52 23 -305 272 -361 355 -36 53 -51 60
-22 10 8 -14 14 -35 15 -46 0 -12 7 -24 14 -27 8 -3 18 -22 22 -42 9 -52 -3
-55 -15 -3 -8 35 -9 18 -6 -84 l4 -127 -28 -20 c-29 -21 -211 -85 -276 -97
-20 -3 -35 -2 -35 3 0 14 -46 33 -78 33 -15 -1 -38 -7 -52 -15 -32 -18 -60
-19 -60 -1 0 8 -6 16 -14 19 -7 3 -16 24 -19 47 -3 23 -8 44 -10 47 -9 9 -47
-17 -47 -33 0 -8 -13 -34 -28 -57 -16 -23 -40 -67 -55 -98 -28 -57 -67 -94
-149 -142 -50 -29 -63 -33 -53 -17 10 16 -5 12 -37 -12 -28 -19 -30 -25 -25
-63 5 -33 2 -46 -11 -58 -24 -21 -219 -117 -238 -117 -9 0 -38 -8 -64 -17
l-48 -17 -2 -1113 -1 -1113 2971 0 2970 0 0 1118 0 1118 -69 85 c-38 46 -90
114 -114 150 -29 41 -57 71 -76 79 -17 7 -48 35 -68 63 -21 28 -61 79 -89 114
-34 41 -53 75 -57 100 -5 27 -19 50 -47 78 -22 21 -40 47 -40 57 0 10 -18 54
-39 97 -35 68 -68 167 -86 254 -5 25 -9 27 -55 27 -27 0 -60 -4 -74 -10 -20
-7 -25 -6 -28 8 -6 31 4 82 14 75 7 -4 8 7 3 33 -4 21 -3 36 1 32 5 -6 54 82
54 98 0 9 -28 3 -46 -11z m-3014 -660 c-5 -55 -17 -155 -26 -222 -15 -112 -15
-124 0 -154 23 -47 21 -89 -5 -89 -20 0 -21 -13 -6 -100 2 -13 -35 -70 -51
-79 -65 -34 -308 -56 -447 -41 -92 11 -261 52 -277 68 -25 25 -59 157 -61 237
l-2 85 39 32 c22 18 47 36 57 40 18 7 18 7 34 -114 7 -56 17 -66 34 -35 9 18
8 52 -9 167 -11 79 -20 165 -19 190 l1 45 17 -50 c42 -121 72 -177 87 -163 2
3 -12 60 -31 128 -19 68 -35 130 -35 138 0 17 26 -4 201 -165 121 -112 122
-114 150 -194 16 -46 26 -92 23 -104 -10 -40 14 -37 40 4 14 22 30 42 35 45
16 10 39 -22 36 -50 -1 -16 3 -28 14 -32 9 -3 25 -14 35 -24 19 -17 21 -17 40
0 67 58 71 69 80 242 l5 95 -19 -35 c-18 -33 -19 -33 -20 -10 0 22 45 152 71
202 5 10 9 25 9 35 0 9 2 14 5 12 2 -3 0 -50 -5 -104z m2095 15 c-3 -5 -12
-10 -18 -10 -7 0 -6 4 3 10 19 12 23 12 15 0z m-1880 -90 c39 -11 90 -25 115
-31 25 -6 50 -12 57 -14 21 -7 -23 -82 -51 -87 -32 -6 -117 27 -137 53 -14 19
-17 19 -22 5 -7 -19 -19 -20 -69 -6 -26 8 -38 17 -40 33 -2 16 -10 22 -28 22
-23 0 -25 3 -22 29 l5 28 61 -6 c33 -4 93 -15 131 -26z m1755 -10 c-30 -23
-40 -25 -40 -7 0 20 10 27 39 27 l26 0 -25 -20z m-77 -102 c-4 -13 -13 -32
-20 -43 -14 -18 -14 -17 -8 15 9 41 13 50 25 50 4 0 6 -10 3 -22z m-3685 -400
c-6 -20 -70 -48 -108 -48 -34 0 -34 1 25 29 66 32 89 37 83 19z m1747 -87 c-6
-5 -33 -16 -62 -25 -38 -13 -50 -21 -46 -32 4 -12 1 -13 -20 -3 -19 8 -29 8
-43 -1 -17 -10 -16 -11 9 -5 16 3 27 1 27 -5 0 -14 -54 -34 -58 -22 -3 10 -46
3 -120 -17 -31 -9 -58 -9 -99 -1 -53 9 -133 50 -133 68 0 4 71 8 158 10 103 1
190 9 252 21 109 21 148 25 135 12z m-275 -141 c0 -11 -58 -50 -74 -50 -12 0
21 32 49 48 25 14 25 14 25 2z m826 -200 c6 0 17 -14 24 -30 7 -17 17 -33 23
-37 6 -3 7 -1 3 5 -4 7 -1 12 8 12 9 0 16 -6 16 -13 0 -16 -34 -50 -42 -42 -9
9 -31 -53 -23 -65 4 -6 -6 -16 -22 -23 -18 -8 -27 -18 -25 -29 4 -22 -16 -60
-29 -53 -5 4 -9 18 -9 33 l0 26 -16 -22 c-10 -15 -14 -33 -10 -50 4 -16 3 -22
-2 -14 -6 9 -14 6 -31 -12 -12 -13 -19 -26 -14 -28 4 -3 2 -3 -6 -1 -8 2 -18
-2 -24 -9 -5 -8 -6 -3 -3 15 8 36 -20 71 -36 44 -7 -14 -13 -15 -29 -6 -16 8
-18 13 -8 25 9 11 8 14 -6 14 -14 0 -15 3 -5 15 10 12 10 15 -4 15 -24 0 -19
15 14 41 16 13 30 30 30 36 0 7 12 20 28 30 15 9 53 43 86 76 45 45 64 57 80
53 11 -3 26 -6 32 -6z m2704 -1065 l154 -155 -159 -155 c-88 -85 -162 -155
-165 -155 -3 0 -75 70 -160 155 l-155 155 155 155 c85 85 159 155 165 155 6 0
80 -70 165 -155z"/>
<path d="M2250 2820 c0 -5 5 -10 11 -10 5 0 7 5 4 10 -3 6 -8 10 -11 10 -2 0
-4 -4 -4 -10z"/>
<path d="M5005 820 l-150 -150 145 -145 c80 -80 149 -145 155 -145 6 0 75 65
155 145 l145 145 -150 150 -150 150 -150 -150z m35 -156 c0 -56 -4 -94 -10
-94 -6 0 -10 37 -10 90 0 81 -2 89 -17 84 -16 -5 -16 -4 1 10 10 8 23 13 27
10 5 -3 9 -48 9 -100z m154 90 c20 -19 20 -48 1 -64 -12 -10 -11 -16 7 -40 20
-27 20 -30 4 -54 -31 -48 -99 -42 -112 10 -5 18 -1 32 14 47 17 19 18 24 6 35
-31 29 -5 82 41 82 13 0 31 -7 39 -16z m146 -105 l35 -6 -37 -2 c-37 -1 -38
-2 -40 -38 l-1 -38 -4 38 c-4 35 -6 37 -41 39 l-37 1 38 4 c36 4 37 5 38 46
l2 42 6 -40 c5 -36 9 -41 41 -46z"/>
<path d="M5120 745 c-15 -18 -4 -52 19 -60 40 -12 70 20 51 56 -13 22 -52 25
-70 4z"/>
<path d="M5128 658 c-47 -36 -9 -99 46 -78 33 12 35 53 4 74 -27 19 -30 19
-50 4z"/>
<path d="M3944 3544 c5 -11 9 -28 11 -39 1 -11 12 -41 24 -68 17 -36 31 -51
59 -62 20 -9 46 -14 57 -13 16 3 8 12 -37 41 -63 41 -77 57 -26 31 17 -9 40
-17 52 -19 12 -1 50 -12 85 -24 35 -12 65 -20 68 -18 6 7 -130 97 -221 146
-61 34 -77 39 -72 25z"/>
<path d="M1009 3513 c5 -10 31 -38 57 -63 l48 -45 -53 63 c-53 63 -70 77 -52
45z"/>
<path d="M3882 3490 c0 -14 2 -19 5 -12 2 6 2 18 0 25 -3 6 -5 1 -5 -13z"/>
<path d="M2347 3483 c-4 -3 -7 -11 -7 -17 0 -6 5 -5 12 2 6 6 9 14 7 17 -3 3
-9 2 -12 -2z"/>
<path d="M3891 3444 c0 -11 3 -14 6 -6 3 7 2 16 -1 19 -3 4 -6 -2 -5 -13z"/>
<path d="M3901 3394 c0 -11 3 -14 6 -6 3 7 2 16 -1 19 -3 4 -6 -2 -5 -13z"/>
<path d="M3911 3344 c0 -11 3 -14 6 -6 3 7 2 16 -1 19 -3 4 -6 -2 -5 -13z"/>
<path d="M1532 3179 c2 -8 29 -22 58 -32 30 -10 57 -22 60 -26 19 -27 59 -41
115 -39 l60 1 -50 7 -50 7 45 1 c51 2 190 42 190 55 0 5 -8 6 -17 1 -10 -4
-67 -10 -128 -11 -105 -4 -196 11 -269 42 -14 6 -18 5 -14 -6z"/>
<path d="M1135 2910 c-66 -21 -112 -39 -102 -40 10 0 46 10 80 21 34 12 94 30
132 39 45 12 59 18 40 18 -16 1 -84 -17 -150 -38z"/>
<path d="M680 2858 c-17 -18 -36 -42 -42 -53 -6 -11 -9 -18 -6 -15 83 90 118
139 48 68z"/>
<path d="M585 2699 c-15 -29 -53 -77 -84 -107 l-56 -54 55 42 c52 40 131 152
117 166 -3 4 -18 -18 -32 -47z"/>
<path d="M3251 838 c-5 -13 -6 -25 -2 -28 3 -3 14 -23 24 -44 22 -47 35 -36
33 28 -1 29 -6 40 -16 38 -11 -3 -11 0 0 12 11 14 9 16 -9 16 -13 0 -25 -9
-30 -22z"/>
</g>
</svg>
